<svg viewBox="0 0 15 15" fill="none" xmlns="http://www.w3.org/2000/svg" id="icon">
<path d="M3.7124 13V1.13403H7.8774C10.1894 1.13403 11.4814 2.35803 11.4814 4.29603C11.4814 5.63903 10.7844 6.43803 9.5434 6.79503V6.89703C11.0054 7.25403 11.8554 8.13803 11.8554 9.73603C11.8554 11.725 10.5124 13 8.2684 13H3.7124ZM6.1944 11.215H7.4864C8.6934 11.215 9.2544 10.875 9.2544 9.78703V9.29403C9.2544 8.22303 8.6934 7.86603 7.4864 7.86603H6.1944V11.215ZM6.1944 6.16603H7.1634C8.3534 6.16603 8.8804 5.82603 8.8804 4.78903V4.27903C8.8804 3.24203 8.3534 2.91903 7.1634 2.91903H6.1944V6.16603Z" fill="currentColor"></path>
</svg>
