<svg viewBox="0 0 15 15" fill="none" xmlns="http://www.w3.org/2000/svg" id="icon">
<path d="M8.88461 8.39935C8.51368 8.76122 8.01477 8.96185 7.49658 8.95753C6.97839 8.95321 6.4829 8.7443 6.11804 8.37629L4.68865 6.9469C4.32285 6.58087 4.11546 6.0858 4.11115 5.56833C4.10684 5.05087 4.30595 4.55241 4.6656 4.18033L7.73649 1.05411C8.1086 0.693964 8.60762 0.49492 9.12545 0.500099C9.64328 0.505277 10.1382 0.71426 10.5031 1.08178L11.9324 2.51117C12.2963 2.87966 12.5003 3.37663 12.5003 3.89445C12.5003 4.41228 12.2963 4.90925 11.9324 5.27774L10.5907 6.61952" stroke="currentColor" stroke-linejoin="round"></path>
<path d="M6.12702 6.60049C6.49795 6.23862 6.99686 6.03799 7.51505 6.0423C8.03324 6.04662 8.52874 6.25554 8.89359 6.62354L10.323 8.05294C10.6888 8.41897 10.8962 8.91404 10.9005 9.4315C10.9048 9.94897 10.7057 10.4474 10.346 10.8195L7.27515 13.9457C6.90303 14.3059 6.40401 14.5049 5.88618 14.4997C5.36835 14.4946 4.87341 14.2856 4.50858 13.9181L3.07919 12.4887C2.71229 12.1232 2.50414 11.6279 2.49982 11.1101C2.49551 10.5923 2.69538 10.0936 3.05613 9.7221L4.30109 8.47714" stroke="currentColor" stroke-linejoin="round"></path>
</svg>
