<svg viewBox="0 0 15 15" fill="none" xmlns="http://www.w3.org/2000/svg" id="icon">
<path d="M7.50005 0.992C7.33472 0.992 7.20139 0.944 7.10005 0.848C7.00405 0.752 6.95605 0.634667 6.95605 0.496V0.488C6.95605 0.349333 7.00405 0.234667 7.10005 0.144C7.19605 0.048 7.32672 0 7.49205 0C7.65739 0 7.79072 0.048 7.89205 0.144C7.99339 0.234667 8.04405 0.349333 8.04405 0.488V0.496C8.04405 0.634667 7.99339 0.752 7.89205 0.848C7.79605 0.944 7.66539 0.992 7.50005 0.992ZM7.10005 1.752H7.89205V6.008H7.10005V1.752Z" fill="currentColor"></path>
<path d="M8.67974 9.98394C8.51441 9.98394 8.38108 9.93594 8.27974 9.83994C8.18374 9.74394 8.13574 9.62661 8.13574 9.48794V9.47994C8.13574 9.34128 8.18374 9.22661 8.27974 9.13594C8.37574 9.03994 8.50641 8.99194 8.67174 8.99194C8.83708 8.99194 8.97041 9.03994 9.07174 9.13594C9.17308 9.22661 9.22374 9.34128 9.22374 9.47994V9.48794C9.22374 9.62661 9.17308 9.74394 9.07174 9.83994C8.97574 9.93594 8.84508 9.98394 8.67974 9.98394ZM8.27974 10.7439H9.07174V14.9999H8.27974V10.7439Z" fill="currentColor"></path>
<path d="M6.32037 9.98394C6.15503 9.98394 6.0217 9.93594 5.92037 9.83994C5.82437 9.74394 5.77637 9.62661 5.77637 9.48794V9.47994C5.77637 9.34128 5.82437 9.22661 5.92037 9.13594C6.01637 9.03994 6.14703 8.99194 6.31237 8.99194C6.4777 8.99194 6.61103 9.03994 6.71237 9.13594C6.8137 9.22661 6.86437 9.34128 6.86437 9.47994V9.48794C6.86437 9.62661 6.8137 9.74394 6.71237 9.83994C6.61637 9.93594 6.4857 9.98394 6.32037 9.98394ZM5.92037 10.7439H6.71237V14.9999H5.92037V10.7439Z" fill="currentColor"></path>
</svg>
