<svg viewBox="0 0 15 15" fill="none" xmlns="http://www.w3.org/2000/svg" id="icon">
<path d="M6.77993 0H8.22793L10.4759 5.6H9.60393L8.99593 4.088H5.98793L5.37993 5.6H4.52393L6.77993 0ZM6.28393 3.352H8.69993L7.67593 0.784H7.31593L6.28393 3.352Z" fill="currentColor"></path>
<path d="M8.06791 9.3999C8.63857 9.3999 9.08124 9.5199 9.39591 9.7599C9.71591 9.9999 9.87591 10.3466 9.87591 10.7999C9.87591 11.5039 9.51324 11.9359 8.78791 12.0959C9.19324 12.2132 9.49457 12.3839 9.69191 12.6079C9.89457 12.8266 9.99591 13.1066 9.99591 13.4479C9.99591 13.9812 9.81457 14.3732 9.45191 14.6239C9.09457 14.8746 8.58524 14.9999 7.92391 14.9999H5.00391V9.3999H8.06791ZM7.93991 11.7999C8.31324 11.7999 8.59057 11.7306 8.77191 11.5919C8.95857 11.4479 9.05191 11.2346 9.05191 10.9519C9.05191 10.6799 8.96124 10.4772 8.77991 10.3439C8.59857 10.2052 8.33457 10.1359 7.98791 10.1359H5.81991V11.7999H7.93991ZM7.94791 14.2559C8.36924 14.2506 8.67591 14.1759 8.86791 14.0319C9.06524 13.8826 9.16391 13.6559 9.16391 13.3519C9.16391 13.0692 9.06524 12.8532 8.86791 12.7039C8.67057 12.5492 8.37457 12.4719 7.97991 12.4719H5.81991V14.2639L7.94791 14.2559Z" fill="currentColor"></path>
</svg>
