<svg viewBox="0 0 15 15" fill="none" xmlns="http://www.w3.org/2000/svg" id="icon">
<path d="M7.5 3.5H14.5M7.5 11.5H14.5" stroke="currentColor" stroke-linecap="round"></path>
<path d="M2.36364 5.5C2.28509 5.5 2.18511 5.46497 2.1018 5.41461C0.802161 4.65052 0 3.73974 0 2.8399C0 2.04516 0.580793 1.5 1.34725 1.5C1.74238 1.5 2.09704 1.65545 2.36364 2.0145C2.63261 1.65545 2.98489 1.5 3.38002 1.5C4.14648 1.5 4.72727 2.04516 4.72727 2.8399C4.72727 3.73974 3.92511 4.65052 2.62547 5.41461C2.54216 5.46497 2.44219 5.5 2.36364 5.5Z" fill="currentColor"></path>
<path d="M2.36364 13.5C2.28509 13.5 2.18511 13.465 2.1018 13.4146C0.802161 12.6505 0 11.7397 0 10.8399C0 10.0452 0.580793 9.5 1.34725 9.5C1.74238 9.5 2.09704 9.65545 2.36364 10.0145C2.63261 9.65545 2.98489 9.5 3.38002 9.5C4.14648 9.5 4.72727 10.0452 4.72727 10.8399C4.72727 11.7397 3.92511 12.6505 2.62547 13.4146C2.54216 13.465 2.44219 13.5 2.36364 13.5Z" fill="currentColor"></path>
</svg>
