<svg viewBox="0 0 15 15" fill="none" xmlns="http://www.w3.org/2000/svg" id="icon">
<path d="M7.70409 0.704H6.49609L6.60809 0H8.50409V5.6H7.70409V0.704Z" fill="currentColor"></path>
<path d="M7.22799 12.704L7.46799 12.512C7.83599 12.2186 8.10266 11.9973 8.26799 11.848C8.43333 11.6933 8.56133 11.5386 8.65199 11.384C8.74799 11.2293 8.79599 11.0613 8.79599 10.88C8.79599 10.608 8.69999 10.3946 8.50799 10.24C8.31599 10.08 8.03599 9.99997 7.66799 9.99997C7.29999 9.99997 6.93733 10.0773 6.57999 10.232C6.22799 10.3813 5.87066 10.616 5.50799 10.936H5.49999V10.096C6.15599 9.54664 6.88133 9.27197 7.67599 9.27197C8.29999 9.27197 8.78266 9.41331 9.12399 9.69597C9.46533 9.97864 9.63599 10.352 9.63599 10.816C9.63599 11.104 9.57466 11.36 9.45199 11.584C9.32933 11.808 9.15599 12.0213 8.93199 12.224C8.71333 12.4266 8.36666 12.7146 7.89199 13.088L7.85999 13.112L6.42799 14.272H9.70799V15H5.29199V14.272L7.22799 12.704Z" fill="currentColor"></path>
</svg>
