<svg viewBox="0 0 15 15" fill="none" xmlns="http://www.w3.org/2000/svg" id="icon">
<path d="M7.5 3.5H14.5M7.5 11.5H14.5" stroke="currentColor" stroke-linecap="round"></path>
<path fill-rule="evenodd" clip-rule="evenodd" d="M1 1C0.447715 1 0 1.44772 0 2V5C0 5.55228 0.447715 6 1 6H4C4.55228 6 5 5.55228 5 5V2C5 1.44772 4.55228 1 4 1H1ZM4.02022 3.02022C4.21548 2.82496 4.21548 2.50838 4.02022 2.31311C3.82496 2.11785 3.50838 2.11785 3.31311 2.31311L2 3.62623L1.68689 3.31311C1.49162 3.11785 1.17504 3.11785 0.97978 3.31311C0.784518 3.50838 0.784518 3.82496 0.97978 4.02022L1.64645 4.68689C1.84171 4.88215 2.15829 4.88215 2.35355 4.68689L4.02022 3.02022Z" fill="currentColor"></path>
<rect x="0.5" y="9.5" width="4" height="4" stroke="currentColor"></rect>
</svg>
