<svg viewBox="0 0 15 15" fill="none" xmlns="http://www.w3.org/2000/svg" id="icon">
<path d="M10.7656 0.83193H9.55762L9.66962 0.12793H11.5656V5.72793H10.7656V0.83193Z" fill="currentColor"></path>
<path d="M6.01833 5.856C5.45299 5.856 4.97566 5.73333 4.58633 5.488C4.20233 5.23733 3.91433 4.89333 3.72233 4.456C3.53033 4.01333 3.43433 3.50667 3.43433 2.936C3.43433 2.36533 3.53033 1.86133 3.72233 1.424C3.91966 0.981333 4.21299 0.634666 4.60233 0.384C4.99166 0.128 5.46899 0 6.03433 0C6.58366 0 7.05299 0.125333 7.44233 0.376C7.83166 0.621333 8.12499 0.965333 8.32233 1.408C8.51966 1.85067 8.61833 2.35467 8.61833 2.92C8.61833 3.48533 8.51699 3.98933 8.31433 4.432C8.11699 4.87467 7.82099 5.224 7.42633 5.48C7.03699 5.73067 6.56766 5.856 6.01833 5.856ZM6.03433 5.128C6.59966 5.128 7.03166 4.936 7.33033 4.552C7.63433 4.16267 7.78633 3.624 7.78633 2.936C7.78633 2.24267 7.63433 1.70133 7.33033 1.312C7.02633 0.922667 6.58899 0.728 6.01833 0.728C5.45299 0.728 5.01833 0.922667 4.71433 1.312C4.41566 1.696 4.26633 2.232 4.26633 2.92C4.26633 3.61333 4.41833 4.15467 4.72233 4.544C5.02633 4.93333 5.46366 5.128 6.03433 5.128Z" fill="currentColor"></path>
<path d="M10.3415 12.576L10.5815 12.384C10.9495 12.0907 11.2162 11.8694 11.3815 11.72C11.5469 11.5654 11.6749 11.4107 11.7655 11.256C11.8615 11.1014 11.9095 10.9334 11.9095 10.752C11.9095 10.48 11.8135 10.2667 11.6215 10.112C11.4295 9.95204 11.1495 9.87204 10.7815 9.87204C10.4135 9.87204 10.0509 9.94938 9.69352 10.104C9.34152 10.2534 8.98418 10.488 8.62152 10.808H8.61352V9.96804C9.26952 9.41871 9.99485 9.14404 10.7895 9.14404C11.4135 9.14404 11.8962 9.28538 12.2375 9.56804C12.5789 9.85071 12.7495 10.224 12.7495 10.688C12.7495 10.976 12.6882 11.232 12.5655 11.456C12.4429 11.68 12.2695 11.8934 12.0455 12.096C11.8269 12.2987 11.4802 12.5867 11.0055 12.96L10.9735 12.984L9.54152 14.144H12.8215V14.872H8.40552V14.144L10.3415 12.576Z" fill="currentColor"></path>
<path d="M4.76222 15C4.19689 15 3.71956 14.8774 3.33022 14.632C2.94622 14.3814 2.65822 14.0374 2.46622 13.6C2.27422 13.1574 2.17822 12.6507 2.17822 12.08C2.17822 11.5094 2.27422 11.0054 2.46622 10.568C2.66356 10.1254 2.95689 9.77871 3.34622 9.52804C3.73556 9.27204 4.21289 9.14404 4.77822 9.14404C5.32756 9.14404 5.79689 9.26938 6.18622 9.52004C6.57556 9.76538 6.86889 10.1094 7.06622 10.552C7.26356 10.9947 7.36222 11.4987 7.36222 12.064C7.36222 12.6294 7.26089 13.1334 7.05822 13.576C6.86089 14.0187 6.56489 14.368 6.17022 14.624C5.78089 14.8747 5.31156 15 4.76222 15ZM4.77822 14.272C5.34356 14.272 5.77556 14.08 6.07422 13.696C6.37822 13.3067 6.53022 12.768 6.53022 12.08C6.53022 11.3867 6.37822 10.8454 6.07422 10.456C5.77022 10.0667 5.33289 9.87204 4.76222 9.87204C4.19689 9.87204 3.76222 10.0667 3.45822 10.456C3.15956 10.84 3.01022 11.376 3.01022 12.064C3.01022 12.7574 3.16222 13.2987 3.46622 13.688C3.77022 14.0774 4.20756 14.272 4.77822 14.272Z" fill="currentColor"></path>
</svg>
