<svg viewBox="0 0 15 15" fill="none" xmlns="http://www.w3.org/2000/svg" id="icon">
<path d="M6.99608 4.488C6.54808 4.488 6.19874 4.384 5.94808 4.176C5.70274 3.96267 5.58008 3.68533 5.58008 3.344C5.58008 3.024 5.69208 2.752 5.91608 2.528C6.32674 2.11733 7.23074 1.87733 8.62808 1.808V1.624C8.62808 1.32 8.54275 1.088 8.37208 0.928C8.20141 0.768 7.94541 0.688 7.60408 0.688C7.31608 0.688 7.02541 0.744 6.73208 0.856C6.43874 0.962667 6.15874 1.11733 5.89208 1.32H5.88408V0.552C6.46008 0.184 7.06808 0 7.70808 0C8.26808 0 8.69208 0.144 8.98008 0.432C9.27341 0.714667 9.42008 1.12 9.42008 1.648V4.376H8.67608L8.66008 3.728C8.18541 4.23467 7.63074 4.488 6.99608 4.488ZM7.17208 3.888C7.45475 3.888 7.72141 3.82667 7.97208 3.704C8.22274 3.58133 8.44141 3.41867 8.62808 3.216V2.336C8.03074 2.37333 7.56941 2.43467 7.24408 2.52C6.91874 2.6 6.68408 2.712 6.54008 2.856C6.42274 2.97333 6.36408 3.11733 6.36408 3.288C6.36408 3.47467 6.43608 3.62133 6.58008 3.728C6.72941 3.83467 6.92674 3.888 7.17208 3.888Z" fill="currentColor"></path>
<path d="M6.13594 11.1279C6.3226 10.9412 6.54127 10.7919 6.79194 10.6799C7.04794 10.5625 7.33327 10.5039 7.64794 10.5039C8.02127 10.5039 8.35994 10.5892 8.66394 10.7599C8.97327 10.9305 9.21594 11.1759 9.39194 11.4959C9.57327 11.8159 9.66394 12.1865 9.66394 12.6079C9.66394 13.0772 9.5626 13.4932 9.35994 13.8559C9.1626 14.2185 8.88527 14.5012 8.52794 14.7039C8.17594 14.9012 7.77594 14.9999 7.32794 14.9999C6.85327 14.9999 6.3706 14.8879 5.87994 14.6639H5.33594V8.87988H6.13594V11.1279ZM7.44794 11.1839C7.18127 11.1839 6.93594 11.2372 6.71194 11.3439C6.48794 11.4452 6.29594 11.5759 6.13594 11.7359V14.0079C6.51994 14.2265 6.9066 14.3359 7.29594 14.3359C7.58927 14.3359 7.85327 14.2692 8.08794 14.1359C8.32794 13.9972 8.51727 13.8025 8.65594 13.5519C8.7946 13.2959 8.86394 12.9972 8.86394 12.6559C8.86394 12.1919 8.73327 11.8319 8.47194 11.5759C8.21594 11.3145 7.8746 11.1839 7.44794 11.1839Z" fill="currentColor"></path>
</svg>
