<svg class="svg-icon" id="Layer_1" data-name="Layer 1" xmlns="http://www.w3.org/2000/svg" viewBox="0 0 512 512">
  <path d="M279,0l53.7,52.8c20.62,1.39,42.35-1.14,62.84.16,60.11,3.83,39.66,65.38,43.66,106.34,15.72,19.47,42.3,33.89,46.69,60.31-1.14,77.65,5.27,159.58,1.15,236.94-.78,14.65-3.28,26.6-13.02,37.98-7.77,9.07-17.72,14.06-29.02,17.48h-149c-7.21-4.87-7.51-17.26,1.55-19.94,43.76-2.42,90.59,3.01,133.99-.02,5.11-.36,10.57-1.54,15.46-3.05l-116.5-116.97c-28.16,24.39-46.3,62.85-90.26,50.24-22.73-6.52-40.74-35.56-58.74-50.24l-116.5,116.49c4.43,2.31,10.44,3.19,15.45,3.54,43.39,3.03,90.23-2.4,133.99.02,9.07,2.68,8.76,15.07,1.55,19.94H67c-11.3-3.42-21.25-8.41-29.02-17.48-9.74-11.38-12.24-23.33-13.02-37.98-4.12-77.36,2.29-159.29,1.15-236.94,4.39-26.42,30.98-40.84,46.69-60.31,3.97-40.92-16.41-102.51,43.66-106.34,20.48-1.3,42.22,1.23,62.84-.16L233,0h46ZM302,53l-32.02-32.48c-9.22-.62-19.58-1.4-28.54.43l-31.45,32.05h92ZM113.78,74.28c-13.25,1.67-18.68,9.47-19.77,22.23l.5,158.47,141.01,140.99c13.41,10.48,29.18,10.34,42-.95l139.96-140.04.57-156.53c-.98-15.34-6.55-23.23-22.51-24.49l-281.75.32ZM73,233v-43c-7.17,6.75-15.33,13.57-20.86,21.67-.17,1.94,17.91,18.68,20.86,21.33ZM439,233c2.95-2.65,21.03-19.38,20.86-21.33-5.53-8.1-13.69-14.93-20.86-21.67v43ZM49.01,473l116.97-116.5-119.97-119.5-.05,220.54,3.05,15.46ZM462.99,473l3.05-15.46-.05-220.54-119.97,119.5,116.97,116.5Z"/>
  <path d="M251,512c-6.32-3.4-7.39-16.33-.61-19.07,14.67-5.93,21.6,10.3,10.61,19.07h-10Z"/>
  <path d="M291.35,255.65c-21.06-20.73.83-53.36-20.88-70.62-27.91-22.2-66.56,15.79-42.45,45.45,12.65,15.57,25.21,9.59,41.5,11.5,11.65,1.36,12.91,19.45-1.02,21.02-39.25,4.43-74.3-18.98-68.4-61.4,6.55-47.02,72.43-60.71,95.7-18.9,9.73,17.49,4.42,28.84,6.21,46.79,2,20.08,25.93,19.05,28.01,2.04,5.06-41.37-14.18-83.2-57.01-93.04-67.64-15.53-117.62,61.62-75.43,117.43,30.64,40.54,79.52,28.1,123.86,30.14,9.39,1.55,11.64,19.5-5.91,20.97-32.37,2.72-82.77,2.28-110.45-15.62-84.82-54.85-37.93-188.11,63.4-175.4,59.91,7.51,86.97,60.37,82.55,116.52-2.39,30.41-38.23,44.23-59.68,23.11Z"/>
</svg>