<svg class="svg-icon" id="Layer_1" data-name="Layer 1" xmlns="http://www.w3.org/2000/svg" viewBox="0 0 512 512">
  <path d="M288,0l6.18,29.82c10.68,2.56,20.6,7.18,30.33,12.15,2.97-.09,19.23-13.31,23.79-15.2,1.27-.52,2.3-1.22,3.67-.3l42.59,42.56-7.56,20.97c28.52-.34,55.9,23.07,58.88,51.63,3.06,29.26.22,48.32-20.87,68.93-1.88,1.83-4.5,1.13-2.57,5.51l43.98,11.92c4.71-.29,20.72-12.42,27.31-13.76,5.46-1.12,12.59.34,18.27-.23v122l-147.02,73.48c-1.49,3.89-1.51,8-2.95,12.05-3.28,9.27-13.15,16.47-23.01,16.49-.18,13.7-11.44,24.24-24.95,25.05-.07,14.53-11.4,23.28-24.95,25.06.24,11.64-8.04,19.78-18.13,23.86h-16c-6.4-2.68-11.4-7.1-16.49-11.72-17.86,10.02-39.78-.4-40.52-21.27-13.83.5-24.5-11.7-25.04-24.96-9.54.43-18.42-5.88-22.15-14.36-.99-2.26-2.12-8.56-3.03-9.47-1.21-1.21-5.38-1.11-7.49-2.01-10.87-4.66-15.38-12.26-17.29-23.7l-23.5-14.5-1.54,6.94-17.21-.19L0,370v-172l28.26.24,40.23,23.33,21.08-5.5c.82-1.14.67-2.89-.06-4.08-.6-.98-8.04-6.66-10.02-8.98-14.6-17.13-15.79-41.74-13.38-63.41,3.13-28.18,31.06-50.03,58.9-49.61l-7.56-20.97,42.59-42.56c1.36-.92,2.4-.23,3.67.3,4.56,1.89,20.82,15.11,23.79,15.2,9.72-4.97,19.65-9.59,30.33-12.15l6.18-29.82h64ZM273.95,17.05h-35.91l-5.24,26.74c-16.1,4.06-31.6,9.78-45.46,19.01l-24.36-14.35-24.83,25.19c-.22,1.15,7.88,20.49,8.79,21.65,2.02,2.59,15.35,6.95,17.56,12.69,32.97-52.26,102.9-66.52,153.81-30.8,10.92,7.66,21.4,17.96,27.7,29.81,1.09.71,7.26-5.18,9.07-6.4,2.43-1.64,8.5-4.27,9.95-6.05.81-.99,8.15-17.86,8.57-19.54.18-.71.5-1.29-.06-1.97l-25.04-24.75-23.86,14.52c-13.75-9-28.99-15.11-45.05-18.69l-5.65-27.06ZM355,215.99c1.73-2.48-8.41-9.62-10.51-11.98-7.66-8.58-13.61-21.98-14.52-33.48-1.16-14.51-1.04-33.41,5.56-46.46l-.26-1.77c-33.96-63.32-127.44-62.71-159.04,2.03,9.8,24.61,9.51,58.93-8.72,79.68-2.14,2.44-12.08,9.68-10.51,11.98,9.57,1,23.5,7.82,32.54,8.04,2.57.06,31.07-6.62,32.03-7.96,1.55-4.69-6.27-8.75-9.6-12.55-14.87-16.97-15.7-39.39-14.01-61.06,3.6-46.16,60.9-68.55,95.93-37.86,25.43,22.28,28.07,73.89,6.13,98.92-3.32,3.79-11.14,7.86-9.6,12.55.96,1.34,29.46,8.02,32.03,7.96,9.04-.22,22.97-7.04,32.54-8.04ZM140.16,202.16c39.23-16.71,31.62-89.69-12.78-94.03-46.51-4.55-59.08,63.65-28.85,88.85,2.1,1.75,7.57,4.1,8.56,5.44,2.55,3.49.08,22.04.82,27.48l-17.89,5.08,42,23.5c2.79,3.12-1.38,13.03,0,17.52l23.87-5.13c.44-12.36,2.63-23.94,11.11-33.37l-26.85-7.63.03-27.71ZM338,295.5v-34c0-7.21-9-16.01-15.32-18.68-14.81-6.25-35.05-7.81-50.58-12.92l.09-26.21c.66-2.19,6.93-4.8,9.28-6.72,30.3-24.7,17.01-92.25-29.02-89.01-41.69,2.94-49.8,66.29-21.94,89.01,2.35,1.92,8.62,4.52,9.28,6.72l.09,26.21c-21.52,8.73-67.13,4.75-65.39,37.11,10.75-2.52,21.96-3.75,33.03-3.06,20.97,1.31,41.31,11.4,61.41,16.59,3.96,1.02,8.63.75,13.05,1.95,14.82,4.02,34.53,11.85,48.94,14.05,1.84.28,6.3,1.36,7.05-1.05ZM356,264.5v21.5l87.01-45.51-38.91-10.59.09-26.21c.68-2.24,6.93-4.75,9.28-6.72,14.33-11.95,16.75-27.61,15.57-45.52-3.79-57.55-77.88-57.36-82.03-1.94-1.68,22.43,3.26,43.06,25.03,53.15l-.17,27.2-26.85,7.63c2.42,3.3,5.95,7.8,7.48,11.5s3.16,11.61,3.5,15.5ZM17,215v142l34.99,11,29.08-117.55-.71-1.56-57.42-33.35-5.95-.56ZM495,234l-152.74,79.76c-20.94,5.34-56.68-17.81-79.64-15.63-7.85.75-51.61,21.82-58.96,27.04-9.66,6.86-4.05,22.58,7.77,20.77,6.31-.97,25.91-15.69,33.54-19.46,21.12-10.41,32.12-3.51,48.03,10.01,21.84,18.55,41.7,39.72,64.3,57.36l137.68-69.34v-90.5ZM67.99,373.99l14.71,4.87,2.12-1.53,29.98-105.11c.45-1.55.35-2.5-.78-3.72-2.52-2.71-13.36-5.98-16.53-9.48l-29.5,114.98ZM236,288.01c-7.63-1.02-15.22-4.53-22.75-5.76-10.72-1.74-20.79-.73-31.46,1.04-18.14,3.02-36.57,9.12-54.81,12.19l-22.97,77.45,24.52,14.11c8.57-7.51,18.6-22.22,31.06-23.95,15.67-2.18,30.57,8.74,30.42,24.9,13.65-.02,24.77,11.35,25,25,10.93-.46,19.13,6.8,23.2,16.3.9,2.11.8,6.27,2.02,7.49.57.57,9.43,2.68,12.71,4.79,5.37,3.45,6.93,8.06,11.04,11.96,3.73,3.54,18.41,15.83,22.6,16.42,7.43,1.05,12.71-6.15,8.42-12.46l-44.57-37.46,9.6-14.01c.93-.67,4.47,2.28,5.44,3.01,13.22,9.89,26.27,24.29,39.62,33.38,9.59,6.54,19.89.66,14.37-10.37l-44.39-37.68,9.94-13.35,47.28,38.19c9.91,5.15,19.14-5.02,9.74-14.74-18.09-18.69-41.92-34.87-60.02-53.98-6.12-4.29-11.2-11.55-19.53-11.49s-30.31,17.34-39.45,21.55c-35.22,16.23-58.85-31.47-27.34-51.34,12.63-7.97,28.37-12.24,40.3-21.19ZM170.68,383.32c-2.5-2.74-8.02-3.21-11.24-1.37-1.24.71-17.18,17.14-17.69,18.31-3.18,7.3,3.74,13.68,11.3,11.29,2.19-.69,16.75-15.32,18.14-17.84,2.02-3.66,2.55-7.03-.52-10.39ZM194.72,407.29c-7.84-6.74-19.89,7.29-24.74,13.19-3.6,4.38-6.58,9.21-1.62,14.17,7.49,7.5,17.83-4.45,22.67-10.12,4.07-4.77,10.41-11.46,3.69-17.24ZM219.68,432.32c-2.4-2.19-6.41-2.88-9.43-1.56-2.04.89-18.2,17.27-18.8,19.18-2.64,8.37,4.29,14.65,12.25,10.26,2.52-1.39,17.15-15.95,17.84-18.14,1-3.18.7-7.4-1.86-9.74ZM244.65,457.35c-2.62-2.62-6.15-3-9.61-1.8-2.21.76-14.78,13.02-16.57,15.42-6.51,8.71.05,18.3,8.74,14.77,3.43-1.39,18.12-15.56,19.24-18.79,1.19-3.44.83-6.97-1.8-9.61ZM269.72,492.72c6.55-6.58-2.27-13.8-7.22-17.7l-10.46,13.38c4.02,4.69,12.18,9.84,17.68,4.33Z"/>
</svg>