<svg class="svg-icon" id="Layer_1" data-name="Layer 1" xmlns="http://www.w3.org/2000/svg" viewBox="0 0 512 512">
  <path d="M372,0c14.17,4.46,25.1,14.22,28.55,28.95,3.37,147.61.51,295.74,1.44,443.54-1.47,20.14-10.56,33.3-29.99,39.51h-232c-19.43-6.21-28.52-19.37-29.99-39.51.93-147.8-1.92-295.92,1.44-443.54,3.45-14.74,14.38-24.49,28.55-28.95h232ZM384,51c.91-14.94-1.48-31.71-19.46-33.04l-219.95.13c-15.63,3.52-17.43,19.2-16.59,32.91h256ZM384,69H128v323h256V69ZM384,410H128v63.5c0,.44,1.38,6.4,1.68,7.32,1.99,6.2,9.1,12.71,15.82,13.18l219.05.04c7,.68,15.42-6.23,17.52-12.48.4-1.2,1.93-7.34,1.93-8.07v-63.5Z"/>
  <path d="M248.74,418.24c52.77-8.22,55.45,70.37,5.8,68.77-41.7-1.34-43.34-62.93-5.8-68.77ZM251.73,436.23c-3.24.67-7.83,4.63-9.56,7.43-9.13,14.84,7.37,31.56,22.54,22.54,15.5-9.22,5.86-33.88-12.98-29.98Z"/>
  <path d="M262.68,40.68c-1.12,1.23-3.45,2.15-5.14,2.36-6.77.82-31.57.96-37.99-.1-8.82-1.46-9.27-15.83,1.18-17.7,6.17-1.11,29.28-1.05,35.67-.15,7.94,1.12,11.66,9.7,6.27,15.59Z"/>
  <path d="M296.65,40.65c-4.07,4.08-21.63,4.42-23.43-3.36-2.67-11.57,7.2-13.35,16.28-12.29,8.33.97,13.3,9.46,7.15,15.64Z"/>
</svg>