<svg class="svg-icon" id="Layer_1" data-name="Layer 1" xmlns="http://www.w3.org/2000/svg" viewBox="0 0 512 512">
  <path d="M273,0c6.92,1.84,14.06,2.66,21,4.5,79.19,21.07,123.1,105.95,97.72,183.71-8.07,24.72-24.9,44.44-36.79,67.19l81.11,46.33,75.97,198.26v12h-12c-.64-1.7-2.24-2.09-3.64-2.86-39.12-21.23-77.18-44.47-116.71-64.94l-119.65,67.79h-8l-119.65-67.79-63.02,34.62-57.33,33.17H0v-12l75.97-198.26,81.11-46.33c-11.84-22.81-28.71-42.45-36.79-67.19C94.39,108.88,139.67,25.46,219.57,4.07l19.43-4.07h34ZM260.72,372.71l105.8-167.69C420,109.92,336.04-4.67,228.99,18.49c-83.54,18.07-126.08,113.66-82.8,187.81l104.76,165.96c2.15,2.35,7.46,2.35,9.77.44ZM248,490v-101l-9.83-6.67-64.18-102.32c-1.7.21-1.96,3.77-2.31,5.17-4.15,16.55-6.33,33.64-10.9,50.1-7.65,9.07-15.85,4.05-14.66-7.67,1.6-15.7,9.71-34.76,10.79-50.21.09-1.35.76-2.95-1.37-2.36l-66.6,37.66L23,485.99l100.97-56.52,15.54-70.46c3.59-10.77,17.72-6.55,15.47,4.47l-13.87,67.39,106.88,59.12ZM422.75,312.24l-67.75-37.24,32.21,153.28,14.11,8.89,87.67,48.82-66.25-173.75ZM264,389v101l107.08-59.64-32.09-150.35-65.56,102.92-9.42,6.08Z"/>
  <path d="M243.78,60.28c95.67-10.79,131.14,113.81,50.89,155.89-57.98,30.41-126.77-15.65-121.65-80.65,2.91-36.89,33.56-71.05,70.76-75.24ZM255.67,75.38c-88.12.55-87.01,134.79.66,134.25s87.08-134.79-.66-134.25Z"/>
  <path d="M246.78,90.28c64.01-7.67,84.76,74.03,33.54,99.54-37.59,18.72-80.82-10.56-77.3-52.3,1.89-22.46,21.03-44.51,43.76-47.24ZM248.76,106.26c-38.88,5.63-38.87,66.84,0,72.48,58.06,8.42,58.14-80.9,0-72.48Z"/>
</svg>