<svg class="svg-icon" id="Layer_1" data-name="Layer 1" xmlns="http://www.w3.org/2000/svg" viewBox="0 0 512 512">
  <path d="M264,0c2.6,1.73,5.59,2.62,8.3,4.2,6.22,3.61,22.05,16.38,27.41,17.59,14.71,3.32,32.13-5.86,48.19,1.81,18.4,8.78,17.22,35.8,34.08,45.92,12.21,7.32,29.32,10.32,35.89,24.11,6.78,14.23.57,31.23,1.56,46.43,6.54,17.31,24.67,29.06,22.45,49.34-1.71,15.67-23.11,32.67-22.92,45.06.22,14.46,5.64,30.55-1.76,44.25-7.04,13.02-26.28,16.38-37.9,24.1-10.39,6.9-14.73,30.48-24.09,39.87l52.32,112.29c2.38,9.11-2.01,15.14-11.56,12.56l-66.96-35.52-16.78,76.73-3.23,3.27h-8l-44.51-92.01-45.49,92.01h-8l-3.23-3.27-16.78-76.73-66.96,35.52c-7.47,2.43-13.54-2.04-11.94-9.94l52.7-114.91c-9.36-9.39-13.7-32.97-24.09-39.87-11.62-7.72-30.86-11.08-37.9-24.1-7.4-13.69-1.98-29.79-1.76-44.25.19-12.39-21.21-29.39-22.92-45.06-2.22-20.28,15.92-32.04,22.45-49.34.98-15.2-5.22-32.19,1.56-46.43,6.48-13.6,23.79-16.84,35.89-24.11,16.86-10.12,15.68-37.14,34.08-45.92,15.87-7.57,33.11,1.27,48.17-1.83,8.98-1.85,25.26-19.23,35.73-21.77h16ZM251.71,17.21c-4.64,1.05-19.61,13.34-25.42,16.58-10.6,5.91-14.75,5.56-26.83,5.25-7.56-.19-21.3-3.53-27.82.09-7.64,4.24-14.94,30.8-23.74,39.25-9.79,9.4-38.18,14.1-39.91,28.08-1.6,12.96,4.5,27.88.32,41.32-3.09,9.93-21.56,30.04-21.35,37.66.25,9.1,18.35,26.92,21.57,38.52,3.69,13.27-2.1,27.85-.54,40.54,1.74,14.16,30.83,18.83,40.56,28.44,8.42,8.31,15.34,35.11,23.75,39.24,6.05,2.97,20.14-.08,27.18-.25,5.14-.12,11.62-.41,16.59.49,12.61,2.3,29.1,21.99,40.46,21.64,11.04-.34,27.43-19.87,40.23-21.85,11.03-1.71,36.13,3.8,43.63-.38,8.01-4.47,14.8-31.17,23.59-39.4,9.79-9.16,38.32-13.9,40.06-27.94,1.61-13.02-4.45-27.71-.32-41.33,3.36-11.09,21.77-29.51,21.37-38.68-.32-7.31-18.66-27.18-21.58-37.5-3.73-13.17,2.1-27.89.54-40.54-1.77-14.35-31.42-18.8-41.02-28.98-8.09-8.58-15.06-35.15-24-38.99-6.17-2.65-19.41.36-26.46.53-8.66.22-15.94.7-23.87-3.22s-19.37-15.17-26.95-18.05c-2.83-1.07-7.12-1.22-10.01-.56ZM259,371.01c-5.59.34-9.47.18-14.67-1.83-9.24-3.58-24.59-18.41-32.05-19.95-11.25-2.31-28.15,2.69-40.16.89l-41.1,89.88,51.99-27.49c4.09-2.14,9.27-2.07,12.5,1.5,5.9,19.69,8.85,40.43,13.52,60.5.36,1.53-.67,1.75,1.97,1.49l48.01-104.99ZM339.89,350.12c-12.12,1.49-26.78-2.55-38.41-1.14-4.27.52-15.98,8.18-18.32,11.68-2.81,10.64-14.88,26.41-16.76,36.31-.27,1.4-.69,2.65.03,4.04l34.59,74.99c2.64.26,1.61.04,1.97-1.49,4.67-20.08,7.62-40.81,13.52-60.5,3.23-3.56,8.4-3.64,12.5-1.5l51.99,27.49-41.1-89.88Z"/>
  <path d="M249.79,67.29c92.49-5.24,154.32,94.52,109.73,175.73-44.28,80.65-162.79,80.6-207.04,0-42.26-76.96,10.25-170.79,97.32-175.73ZM249.8,84.3c-75.08,5.27-118.92,86.79-80.97,152.37,38.31,66.2,135.12,66.45,173.98.64,41.12-69.64-12.64-158.65-93.01-153.01Z"/>
  <path d="M262.69,104.31l22.27,47.24,51.27,6.73c5.61,1.55,7.24,9.63,3.31,13.77l-36.38,34.68c.77,15.2,7.59,32.1,8.72,46.9.66,8.64-2.82,13.29-11.92,10.9l-44.4-23.52-42.84,23.22c-7.64,2.82-12.95-.61-12.8-8.72l8.91-48.78-36.38-34.68c-3.94-4.15-2.29-12.22,3.31-13.77l51.27-6.73,21.93-46.8c3.64-3.82,9.78-3.82,13.71-.44ZM256.98,132c-2.33-.51-1.6.32-2.22,1.28-4.07,6.29-12.76,31.04-17.37,33.6-2.3,1.28-7.11,1.51-10.03,1.97-9.66,1.52-19.63,2.21-29.36,3.15,7.28,7.81,15.95,14.49,23.52,21.97,4.61,4.55,5.9,5.39,5.36,12.4-.79,10.35-5.43,23.05-6.88,33.62,1.62,1.33,31.07-18.5,36.48-18.06l35.52,18.06c-1.46-10.57-6.09-23.27-6.88-33.62-.54-7.01.75-7.84,5.36-12.4,7.57-7.48,16.24-14.15,23.52-21.97-7.84-1.72-34.76-1.76-39.98-5.53s-12.96-27.87-17.03-34.48Z"/>
</svg>