<svg  id="Layer_1" fill="#006839" data-name="Layer 1" xmlns="http://www.w3.org/2000/svg" viewBox="0 0 512 512">
  <path d="M298.21,37.08h40.82c.79,0,6.33,2.29,7.45,2.95,5.15,3.03,20.88,28.52,24.5,35.17,7.39,13.57,2.16,32.43,3.68,47.77,8.72,4.13,8.68,21.5,5.72,29.29-4.63,12.2-23.34,5.01-31.84,7.59-3.28,1-8.23,9.73-16.42,11.74-15.18,3.73-24.06-2.07-34.46-11.93l-61.26.21c-10,16.16-31.18,16.3-44.7,4.57-1.46-1.27-2.15-4.07-3.74-4.63-3.89-1.37-14.37.42-19.47-.17-13.33-1.55-12.9-15.15-11.94-25.93.61-6.84,4.66-6.88,5.27-11.52,2.5-36.24-3.5-77.54-.12-113.17.6-6.35,4.15-7.35,9.84-7.9,37.56,2.77,79.88-3.55,116.87,0,2.34.22,9.78,2.1,9.78,4.8v31.17ZM282.71,17h-105.42v104.6c4.01-.46,9.04.68,12.87-.05s9.46-6.77,14.97-7.94c6.8-1.44,15.19-.63,21.43,2.51,2.07,1.04,6.61,5.47,7.05,5.47h49.09V17ZM309.58,52.93h-11.37v68.68c4.98,1.43,5.96-2.39,8.95-4.05,11.57-6.43,21.97-6.11,33.36.42,1.09.63,3.36,3.63,3.68,3.63h14.99v-32.75h-45.99c-.26,0-3.62-3.44-3.62-3.7v-32.23ZM350.92,74.06c-3.26-5.22-10.12-20.4-15.97-21.18-3.04-.41-6.72.38-9.87.05v21.13h25.84ZM209.04,129.25c-20.86,4.38-5.45,39.39,12.19,24.08,11.19-9.71,2.17-27.09-12.19-24.08ZM333,132.53c-12.42-12.78-32.64,8.02-18.78,20.78,12.54,11.55,32.18-6.99,18.78-20.78ZM183.49,137.45h-11.38v6.35h11.38v-6.35ZM294.07,137.45h-52.71v6.34h52.71v-6.34ZM366.43,137.45h-13.45v6.35h13.45v-6.35Z"/>
  <path d="M46.03,378.35c16.22-3.11,32.34-11.33,48.88-11.4,4.14,2.11,5.08,7.01,4.87,11.4l42.86-11.68c5.97-1.07,9.91,3.13,9.89,8.99-1.99,23.48,2.5,51.04-.05,74.01-.36,3.24-1.19,6.78-4.4,8.19l-143.45.32c-2.33-.99-4.23-2.47-4.14-5.28l.51-124.25c1.39-3.02,3.99-5.68,7.35-6.22,5.44-.88,21.09-.68,26.86-.11,3.26.32,10.8,3.17,10.8,6.92v49.13ZM30.53,338.2h-15.5v6.34h15.5v-6.34ZM30.53,360.39h-15.5v82.41h15.5v-82.41ZM84.27,384.69l-38.24,11.09v47.02h38.24v-58.11ZM136.98,384.69l-37.21,9.51v48.6h37.21v-58.11Z"/>
  <path d="M197.27,292.41c-4.6-4.71-4.76-23.76-1.81-29.14,4.19-7.63,15.51-4.06,17.59-11.69,1.37-5.01-5.58-9.18-5.7-15.46-.14-7.15,13.74-21.45,20.34-22.39,8.14-1.15,11.83,7.78,17.51,5.35,6.88-2.94,3.28-13.35,10.72-17.62,4.88-2.8,22.33-2.59,27.16.58,6.85,4.5,2.63,16.17,10.72,17.66,6.62,1.22,10.26-11.15,21.92-3.48,2.46,1.61,13.73,13.53,14.3,16.02,2.39,10.59-8.38,13.75-3.79,21.85,2.96,5.22,15.6.97,17.38,12.87.58,3.9.55,19.16-.72,22.37-3.44,8.71-15.97,4.06-17.61,11.6-1.64,7.55,6.77,9.37,4.72,19.6-.98,4.87-13.3,17.48-18.08,18.48-9.49,2-10.13-4.17-15.35-5.03-12.03-1.99-5.98,13.3-14.52,17.82-3.3,1.74-17.35,1.73-21.6,1.22-13.6-1.65-7.76-16.72-14.66-18.82-7.55-2.29-9.54,6.53-19.17,4.81-5.24-.94-18.56-15.02-19.18-20.64-.89-8.13,8.12-11.17,5.24-17.93-2.55-5.97-11.07-3.57-15.42-8.03ZM272.23,215.78l-7.05-.09c-.46,11.48-12.37,20.51-23.25,20.06-4.5-.19-11.07-4.92-13.51-3.29-.66.44-3.39,3.36-3.48,3.93,9.27,15.14,1.19,33.54-15.68,36.95l.21,6.61c11.74,2.08,20.19,12.57,19.51,24.94-.25,4.54-4.75,11.4-3.21,13.79.37.57,3.41,3.5,3.7,3.5,14.14-9.96,33.01-2.41,36.29,15.03,9.39,1.69,6.62-4.26,10.75-10.09,5.5-7.77,14.18-10.19,23.27-9.01,4.16.54,6.96,4.5,10.35,2.22,4.95-3.33-.17-8.71-.59-14.3-1.08-14.16,6.24-22.21,18.69-26.62l-.15-6.6c-17.69-2.52-23.47-22.45-14.81-37.08l-4.35-4.06c-15.52,9.03-32.82,2.02-36.68-15.87Z"/>
  <path d="M450.14,394.21c-.3,1.37,1.07,1.26,2.05,1.57,19.22,5.95,31.38,11.44,41.78,30.2,23.1,41.66-4.13,58.74-42.25,61.24-22.38,1.47-72.91-1.11-71.92-33.36.87-28.5,24.27-54.67,51.72-58.62l-9.63-5.45c-32.46-25.78.05-76.51,36.17-54.94,23.58,14.08,18.57,52.76-7.92,59.36ZM428.79,374.82c14.85,16.2,38.72-6.73,24.99-22.91-15.04-17.74-40.37,6.13-24.99,22.91ZM439.62,410.3c-19.95.59-38.06,16.05-42.75,35.64-1.72,7.19-3.14,12.05,3.31,16.76,15.61,11.41,66.13,11.88,81.47.17,4.53-3.46,4.99-5.3,4.53-10.96-1.89-23.18-24.07-42.28-46.56-41.61Z"/>
  <path d="M487.35,295.94c4.71-2.24,11.73-10.85,16.96-10.55,6.3.35,8.67,7.29,6.27,12.66-2.08,4.65-25.07,18.26-29.48,23.74-6.35,2.19-8.45.09-12.33-4.21-2.88-3.19-19.56-25.3-20.23-27.94-1.48-5.8,2.21-11.21,8.22-10.58,6.54.69,9.77,11.66,15.07,14.79,2.83-46.24-8.14-92.07-32.63-130.92-3.35-5.31-16.42-20.75-17.56-24.34-1.97-6.25,3.01-11.87,9.34-10.61,6.32,1.26,25.2,32.01,28.99,39.06,21.38,39.69,29.94,83.63,27.38,128.92Z"/>
  <path d="M200.03,471.34c-.31,1.45,1.07,1.13,2.06,1.55,40.81,17.38,97.84,13.21,138.75-1.83,6.82-2.51,18.88-11.25,25.1-6.1,12.9,10.68-17.4,20.33-23.52,22.5-48.1,17.05-100.54,16.54-148.59-.28,1.68,5.86,9.76,17.55,4.1,22.67-3.61,3.27-9.34,2.75-12.22-1.18-2.13-2.91-13.17-30.08-14.14-34.18-1.22-5.18.27-7.58,4.63-10.1,3.71-2.14,32.03-14.15,34.7-14.1,3.97.07,7.56,3.88,7.68,7.93.25,8.27-12.73,10.51-18.55,13.11Z"/>
  <path d="M102.86,157.53l-10.5,16.19c-18.7,34.12-28.92,76.04-26.68,115.34.38,6.71,5.09,28.57,2.13,32.84-3.16,3.38-9.56,3.69-12.51-.05-2.44-3.09-4.83-26.39-5.13-31.74-2.73-49.41,11.67-101.24,39.26-141.58-6.81-2.02-16.41,5.07-21.72-2.08-3.71-5-1.04-10.7,4.49-12.37,5.73-1.73,28.33-4.91,34.45-5.02,4.18-.08,7.15,1.73,8.54,5.81,1.63,4.81,3.91,24.76,4.2,30.57.32,6.39,1.52,13.98-6.73,14.33-10.84.46-8.8-14.77-9.81-22.26Z"/>
  <path d="M318.11,136.67c6.6-6.33,18.16,4.86,11.09,11.86s-19.13-4.14-11.09-11.86Z"/>
  <path d="M210.06,135.57c12.1-2.84,11.97,12.47,5.77,14.33-12.3,3.69-13.9-12.42-5.77-14.33Z"/>
  <path d="M62.57,399.48v12.69s-12.41,0-12.41,0l.46-11.69c1.4-2.05,9.27-.56,11.96-1Z"/>
  <path d="M80.14,412.17h-12.41s0-12.69,0-12.69c2.69.44,10.56-1.05,11.96,1l.46,11.69Z"/>
  <path d="M115.28,399.48v12.69s-12.41,0-12.41,0l.46-11.69c1.4-2.05,9.27-.56,11.96-1Z"/>
  <path d="M132.85,412.17h-12.41s0-12.69,0-12.69l11.44.47c2,1.43.54,9.47.97,12.22Z"/>
  <path d="M267.03,234.92c53.19-2.03,57.04,78.75,5.85,83.2-55.35,4.81-59.76-81.14-5.85-83.2ZM251.04,294.5c24.01,24.93,59.35-13.87,35.28-36.6-24.15-22.8-57.68,13.34-35.28,36.6Z"/>
</svg>