<svg  id="icon" fill="currentColor" xmlns="http://www.w3.org/2000/svg" viewBox="0 0 512 512">
  <path d="M512,211.08l-30.96,52.26c-3.33,2.91-7.13,3.49-10.99,1.18l-39.4-50.62c-2.3-7.02,4.45-12.23,11.12-9.09,5.04,2.37,18.15,24.59,23.74,29.26-.07-13.07-3.48-27.23-7.24-39.76C400,.3,128.07-5.34,56.98,184.56c-1.76,4.71-5.25,19.91-7.51,22.49-4.21,4.78-13.25,1.46-13.31-5.46-.04-4.49,5.04-18.03,6.82-23.03C86.57,56.59,226.13-3.24,345.68,47.9c74.22,31.76,127.84,103.28,135.33,184.17l18.46-31.02c4.25-3.44,9.63-2.57,12.53,2.03v8Z"/>
  <path d="M0,302.08l30.96-53.26c3.33-2.91,7.13-3.49,10.99-1.18l39.12,49.87c3.08,7.17-3.78,13.15-10.84,9.83-5.04-2.37-18.15-24.59-23.74-29.26.27,17.35,5.43,36.14,11.49,52.51,67.86,183.41,325.87,181.24,396.76-2.27,2.89-7.48,4.52-26.21,15.3-22.81,9.69,3.05,1.35,21.35-1.03,28.09-38.08,108.08-154.4,168.91-265.84,142.8-92.26-21.62-163.31-101.62-172.19-196.31l-18.46,31.02c-4.15,3.47-8.78,2.19-12.53-1.03v-8Z"/>
  <path d="M242.79,165.37c60.77-4.16,114.29,21.83,159.68,59.73,14.69,12.26,35.72,27.71,16.55,47.5-42.14,43.51-111.13,77.76-172.57,74.52-51.75-2.73-119.28-37.79-154.5-75.5-9.05-9.69-7.97-22.78,1.02-32.07,35.19-36.34,99.02-70.7,149.82-74.18ZM246.79,180.37c-33.94,3.48-63.98,34.22-66.78,68.22-5.65,68.6,74.62,110.53,126.46,64.46,55.63-49.44,14.69-140.3-59.68-132.68ZM189,194.09c-26.75,10.85-52.7,28.1-74.47,47.02-4.7,4.08-15.95,11.58-13,17.96,1.14,2.47,20.36,18.09,24.02,20.97,19.26,15.18,40.23,28.65,62.95,38.05l-11.3-15.7c-20.06-34.25-15.37-79.34,11.81-108.3ZM323,318.07c26.77-9.86,52.5-27.69,74.01-46.48,3.34-2.92,13.89-11.33,14.09-15.02.22-3.98-3.43-6.46-6.09-9.01-15.59-14.95-37.52-31.05-56.34-41.66-5.06-2.85-19.31-11.03-24.17-11.84-.58-.1-1.65-.26-1.5.51,32.45,33.13,31.8,90.11,0,123.49Z"/>
  <path d="M220.35,219.43c49.62-48.27,122.39,31.3,67.66,76.16-49.55,40.61-113.52-31.54-67.66-76.16ZM252.78,220.36c-45.69,4.45-40.74,72.44,3.71,71.8,48.6-.7,44.62-76.5-3.71-71.8Z"/>
</svg>