<svg width="230" height="230" viewBox="0 0 230 230" fill="none" xmlns="http://www.w3.org/2000/svg">
<circle cx="66" cy="157" r="15.5" stroke="black"/>
<path d="M148.667 139.5L148.667 129.5H147V128H152V129.5H150.333L150.333 139.5H152V141H147V139.5H148.667Z" fill="#FF3F00">
  <animate attributeName="opacity" values="1;0;1" dur="0.9s" repeatCount="indefinite" begin="0s" />
</path>
<path d="M145.002 137.6C144.536 137.6 144.129 137.51 143.782 137.33C143.436 137.15 143.166 136.897 142.972 136.57C142.786 136.237 142.692 135.847 142.692 135.4V134.1C142.692 133.653 142.786 133.267 142.972 132.94C143.166 132.607 143.436 132.35 143.782 132.17C144.129 131.99 144.536 131.9 145.002 131.9C145.462 131.9 145.862 131.99 146.202 132.17C146.549 132.35 146.816 132.603 147.002 132.93C147.196 133.25 147.292 133.627 147.292 134.06V135.06H143.892V135.44C143.892 135.813 143.989 136.097 144.182 136.29C144.376 136.477 144.649 136.57 145.002 136.57C145.262 136.57 145.482 136.527 145.662 136.44C145.849 136.347 145.959 136.213 145.992 136.04H147.232C147.146 136.513 146.899 136.893 146.492 137.18C146.086 137.46 145.589 137.6 145.002 137.6ZM146.092 134.35V134.05C146.092 133.67 145.999 133.377 145.812 133.17C145.632 132.963 145.362 132.86 145.002 132.86C144.642 132.86 144.366 132.967 144.172 133.18C143.986 133.387 143.892 133.68 143.892 134.06V134.25L146.182 134.24L146.092 134.35Z" fill="black"/>
<path d="M136.766 137.5V132H137.986V133.05H138.326L137.956 133.34C137.963 132.9 138.103 132.55 138.376 132.29C138.649 132.03 139.013 131.9 139.466 131.9C140.006 131.9 140.436 132.08 140.756 132.44C141.083 132.8 141.246 133.283 141.246 133.89V137.5H139.996V134.04C139.996 133.7 139.909 133.44 139.736 133.26C139.563 133.073 139.323 132.98 139.016 132.98C138.703 132.98 138.456 133.073 138.276 133.26C138.103 133.447 138.016 133.713 138.016 134.06V137.5H136.766Z" fill="black"/>
<path d="M133 137.59C132.533 137.59 132.127 137.5 131.78 137.32C131.433 137.14 131.167 136.887 130.98 136.56C130.793 136.227 130.7 135.837 130.7 135.39V134.11C130.7 133.657 130.793 133.267 130.98 132.94C131.167 132.613 131.433 132.36 131.78 132.18C132.127 132 132.533 131.91 133 131.91C133.473 131.91 133.88 132 134.22 132.18C134.567 132.36 134.833 132.613 135.02 132.94C135.207 133.267 135.3 133.657 135.3 134.11V135.39C135.3 135.837 135.207 136.227 135.02 136.56C134.833 136.887 134.567 137.14 134.22 137.32C133.88 137.5 133.473 137.59 133 137.59ZM133 136.5C133.333 136.5 133.59 136.41 133.77 136.23C133.957 136.043 134.05 135.777 134.05 135.43V134.07C134.05 133.717 133.957 133.45 133.77 133.27C133.59 133.09 133.333 133 133 133C132.673 133 132.417 133.09 132.23 133.27C132.043 133.45 131.95 133.717 131.95 134.07V135.43C131.95 135.777 132.043 136.043 132.23 136.23C132.417 136.41 132.673 136.5 133 136.5Z" fill="black"/>
<path d="M144.992 160.09C144.525 160.09 144.119 160 143.772 159.82C143.425 159.64 143.159 159.387 142.972 159.06C142.785 158.727 142.692 158.337 142.692 157.89V156.61C142.692 156.157 142.785 155.767 142.972 155.44C143.159 155.113 143.425 154.86 143.772 154.68C144.119 154.5 144.525 154.41 144.992 154.41C145.465 154.41 145.872 154.5 146.212 154.68C146.559 154.86 146.825 155.113 147.012 155.44C147.199 155.767 147.292 156.157 147.292 156.61V157.89C147.292 158.337 147.199 158.727 147.012 159.06C146.825 159.387 146.559 159.64 146.212 159.82C145.872 160 145.465 160.09 144.992 160.09ZM144.992 159C145.325 159 145.582 158.91 145.762 158.73C145.949 158.543 146.042 158.277 146.042 157.93V156.57C146.042 156.217 145.949 155.95 145.762 155.77C145.582 155.59 145.325 155.5 144.992 155.5C144.665 155.5 144.409 155.59 144.222 155.77C144.035 155.95 143.942 156.217 143.942 156.57V157.93C143.942 158.277 144.035 158.543 144.222 158.73C144.409 158.91 144.665 159 144.992 159Z" fill="black"/>
<path d="M137.016 160L136.156 154.5H137.146L137.636 157.87C137.663 158.077 137.686 158.3 137.706 158.54C137.726 158.78 137.743 158.98 137.756 159.14C137.769 158.98 137.783 158.78 137.796 158.54C137.816 158.3 137.846 158.077 137.886 157.87L138.486 154.5H139.526L140.106 157.87C140.146 158.077 140.176 158.303 140.196 158.55C140.223 158.79 140.243 158.99 140.256 159.15C140.269 158.99 140.283 158.79 140.296 158.55C140.316 158.303 140.343 158.077 140.376 157.87L140.876 154.5H141.836L140.956 160H139.666L139.146 156.61C139.119 156.417 139.089 156.2 139.056 155.96C139.029 155.713 139.009 155.517 138.996 155.37C138.996 155.47 138.986 155.593 138.966 155.74C138.946 155.887 138.926 156.037 138.906 156.19C138.886 156.343 138.866 156.483 138.846 156.61L138.306 160H137.016Z" fill="black"/>
<path d="M133.55 160C133.037 160 132.627 159.853 132.32 159.56C132.02 159.26 131.87 158.857 131.87 158.35V155.63H130.35V154.5H131.87V152.95H133.13V154.5H135.32V155.63H133.13V158.32C133.13 158.48 133.173 158.613 133.26 158.72C133.353 158.82 133.48 158.87 133.64 158.87H135.27V160H133.55Z" fill="black"/>
<path d="M156.994 182.6C156.528 182.6 156.121 182.51 155.774 182.33C155.428 182.15 155.158 181.897 154.964 181.57C154.778 181.237 154.684 180.847 154.684 180.4V179.1C154.684 178.653 154.778 178.267 154.964 177.94C155.158 177.607 155.428 177.35 155.774 177.17C156.121 176.99 156.528 176.9 156.994 176.9C157.454 176.9 157.854 176.99 158.194 177.17C158.541 177.35 158.808 177.603 158.994 177.93C159.188 178.25 159.284 178.627 159.284 179.06V180.06H155.884V180.44C155.884 180.813 155.981 181.097 156.174 181.29C156.368 181.477 156.641 181.57 156.994 181.57C157.254 181.57 157.474 181.527 157.654 181.44C157.841 181.347 157.951 181.213 157.984 181.04H159.224C159.138 181.513 158.891 181.893 158.484 182.18C158.078 182.46 157.581 182.6 156.994 182.6ZM158.084 179.35V179.05C158.084 178.67 157.991 178.377 157.804 178.17C157.624 177.963 157.354 177.86 156.994 177.86C156.634 177.86 156.358 177.967 156.164 178.18C155.978 178.387 155.884 178.68 155.884 179.06V179.25L158.174 179.24L158.084 179.35Z" fill="black"/>
<path d="M150.998 182.6C150.532 182.6 150.125 182.51 149.778 182.33C149.432 182.15 149.162 181.897 148.968 181.57C148.782 181.237 148.688 180.847 148.688 180.4V179.1C148.688 178.653 148.782 178.267 148.968 177.94C149.162 177.607 149.432 177.35 149.778 177.17C150.125 176.99 150.532 176.9 150.998 176.9C151.458 176.9 151.858 176.99 152.198 177.17C152.545 177.35 152.812 177.603 152.998 177.93C153.192 178.25 153.288 178.627 153.288 179.06V180.06H149.888V180.44C149.888 180.813 149.985 181.097 150.178 181.29C150.372 181.477 150.645 181.57 150.998 181.57C151.258 181.57 151.478 181.527 151.658 181.44C151.845 181.347 151.955 181.213 151.988 181.04H153.228C153.142 181.513 152.895 181.893 152.488 182.18C152.082 182.46 151.585 182.6 150.998 182.6ZM152.088 179.35V179.05C152.088 178.67 151.995 178.377 151.808 178.17C151.628 177.963 151.358 177.86 150.998 177.86C150.638 177.86 150.362 177.967 150.168 178.18C149.982 178.387 149.888 178.68 149.888 179.06V179.25L152.178 179.24L152.088 179.35Z" fill="black"/>
<path d="M142.962 182.5V177H144.182V178.11H144.522L144.152 178.41C144.152 177.943 144.289 177.577 144.562 177.31C144.842 177.037 145.222 176.9 145.702 176.9C146.262 176.9 146.699 177.08 147.012 177.44C147.325 177.8 147.482 178.303 147.482 178.95V179.47H146.232V179.01C146.232 178.67 146.145 178.413 145.972 178.24C145.799 178.067 145.552 177.98 145.232 177.98C144.905 177.98 144.652 178.08 144.472 178.28C144.299 178.48 144.212 178.763 144.212 179.13V182.5H142.962Z" fill="black"/>
<path d="M136.766 182.5V175.2H138.016V177L137.986 178.05H138.326L137.956 178.34C137.963 177.9 138.103 177.55 138.376 177.29C138.649 177.03 139.013 176.9 139.466 176.9C140.006 176.9 140.436 177.08 140.756 177.44C141.083 177.8 141.246 178.283 141.246 178.89V182.5H139.996V179.04C139.996 178.7 139.909 178.44 139.736 178.26C139.563 178.073 139.323 177.98 139.016 177.98C138.703 177.98 138.456 178.073 138.276 178.26C138.103 178.447 138.016 178.713 138.016 179.06V182.5H136.766Z" fill="black"/>
<path d="M133.55 182.5C133.037 182.5 132.627 182.353 132.32 182.06C132.02 181.76 131.87 181.357 131.87 180.85V178.13H130.35V177H131.87V175.45H133.13V177H135.32V178.13H133.13V180.82C133.13 180.98 133.173 181.113 133.26 181.22C133.353 181.32 133.48 181.37 133.64 181.37H135.27V182.5H133.55Z" fill="black"/>
<path d="M142.75 64.75L142.75 82.75H158.5M150.25 82.75V100.75H166.75M142 48.25H133.75V115.75H150.25M133.75 64.75H150.25" stroke="black"/>
<circle cx="140.5" cy="48.25" r="2.25" fill="black"/>
<circle cx="148.75" cy="64.75" r="2.25" fill="black"/>
<circle cx="148.75" cy="115.75" r="2.25" fill="black"/>
<circle cx="157" cy="82.75" r="2.25" fill="black"/>
<circle cx="165.25" cy="100.75" r="2.25" fill="black"/>
<path d="M124.75 124.75L125 85V40M124.75 124.75H94.75M124.75 124.75V190M124.75 124.75H190M40 124.75H94.75M94.75 124.75V190M94.75 190C72.2184 190 51.6178 190 40 190C40 140 40 90 40 40C40 40 155.562 40 190 40V124.75M94.75 190C104.639 190 114.852 190 124.75 190M124.75 190C159.15 190 190 190 190 190V124.75" stroke="black"/>
<path d="M190 145.75H124.75" stroke="black"/>
<path d="M190 166.75H124.75" stroke="black"/>
<path d="M115.75 83.9852V115.75H91.9265H48.25V48.2499H115.75V83.9852Z" stroke="black"/>
<path d="M106 82.7059V106H88.5294H56.5V56.5H106V82.7059Z" stroke="black"/>
<path d="M83.5904 79.0076L92.0544 77.4076C95.5104 76.8156 95.5264 84.7196 92.1504 84.0476L83.8464 82.3036L89.2864 88.5276C91.9104 91.5676 84.7744 95.6636 83.3664 91.6476L80.8224 84.2236L78.2784 91.7436C76.8064 95.9356 69.7824 91.2156 72.1664 88.5916L77.9904 82.3036L69.6224 84.0956C66.1984 84.7996 66.0704 76.8156 69.5744 77.4556L77.7664 79.0876L72.6624 73.4876C70.0064 70.5116 77.1904 66.3356 78.5184 70.2236L80.8384 77.3916L83.5104 69.8076C84.7904 66.3676 91.6864 70.5116 89.2544 73.1036L83.5904 79.0076Z" fill="#FF3F00"/>
<path d="M74 157L62 163.928L62 150.072L74 157Z" fill="#FF3F00"/>
</svg>
