<svg width="212" height="232" viewBox="0 0 212 232" fill="none" xmlns="http://www.w3.org/2000/svg">
<circle cx="102.432" cy="132.131" r="11.3821" fill="black"/>
<path d="M88.4521 108.722C92.3419 109.941 97.0819 110.656 102.197 110.656C107.311 110.656 112.051 109.941 115.941 108.722C113.332 111.728 108.156 113.447 102.197 113.447C96.237 113.447 91.0608 111.728 88.4521 108.722Z" fill="black"/>
<path d="M92.7472 107.863C95.4215 109.209 98.6802 111.085 102.197 111.085C105.713 111.085 108.972 109.209 111.646 107.863C109.852 111.184 106.294 113.447 102.197 113.447C98.0994 113.447 94.5407 111.184 92.7472 107.863Z" fill="black"/>
<path d="M97.9014 105.716C99.117 107.787 100.598 109.857 102.197 109.857C103.795 109.857 105.276 107.787 106.492 105.716C105.677 110.825 104.059 114.306 102.197 114.306C100.334 114.306 98.7166 110.825 97.9014 105.716Z" fill="black"/>
<path d="M102.197 112.588L102.197 125.473" stroke="black" stroke-width="2"/>
<path d="M143.08 42.0253C145.446 43.6575 148.49 45.1283 151.935 46.1955C155.381 47.2628 158.723 47.7701 161.597 47.7612C159.213 49.2414 155.367 49.3194 151.353 48.0758C147.338 46.8323 144.21 44.5942 143.08 42.0253Z" fill="#FF3F00"/>
<path d="M146.153 42.3429C147.673 43.8077 149.477 45.7508 151.846 46.4845C154.215 47.2182 156.801 46.635 158.883 46.2863C156.982 48.1493 154.113 48.9308 151.353 48.0758C148.593 47.2209 146.668 44.9543 146.153 42.3429Z" fill="#FF3F00"/>
<path d="M150.073 41.9717C150.46 43.6204 151.025 45.3244 152.102 45.6579C153.179 45.9914 154.608 44.9056 155.859 43.7642C154.244 47.0359 152.428 49.0431 151.174 48.6545C149.919 48.2659 149.556 45.5837 150.073 41.9717Z" fill="#FF3F00"/>
<path d="M126.697 141.824C122.834 143.125 118.579 145.333 114.441 148.339C110.303 151.345 106.888 154.71 104.458 157.982C104.801 154.017 107.979 149.584 112.8 146.081C117.621 142.578 122.819 140.926 126.697 141.824Z" fill="black"/>
<path d="M123.727 145.044C120.772 145.527 117.033 145.925 114.189 147.992C111.344 150.059 109.81 153.491 108.437 156.152C107.936 152.411 109.485 148.489 112.8 146.081C116.115 143.673 120.324 143.411 123.727 145.044Z" fill="black"/>
<path d="M120.819 149.811C118.618 148.85 116.203 148.045 114.91 148.985C113.617 149.924 113.636 152.47 113.869 154.86C111.526 150.247 110.788 146.481 112.295 145.386C113.802 144.291 117.156 146.156 120.819 149.811Z" fill="black"/>
<path d="M113.305 146.776L105.731 136.351" stroke="black" stroke-width="2"/>
<path d="M99.9356 157.982C97.5047 154.71 94.0903 151.345 89.9524 148.339C85.8146 145.333 81.5595 143.125 77.6965 141.824C81.5736 140.926 86.7718 142.578 91.5931 146.081C96.4145 149.584 99.5918 154.017 99.9356 157.982Z" fill="black"/>
<path d="M95.9558 156.152C94.5835 153.491 93.0494 150.059 90.2046 147.992C87.3598 145.925 83.6212 145.527 80.6665 145.044C84.0696 143.411 88.2784 143.673 91.5931 146.081C94.9078 148.489 96.457 152.411 95.9558 156.152Z" fill="black"/>
<path d="M90.5237 154.86C90.7576 152.47 90.7764 149.924 89.4833 148.985C88.1902 148.045 85.7747 148.85 83.574 149.811C87.2368 146.156 90.5914 144.291 92.0981 145.386C93.6048 146.481 92.8675 150.247 90.5237 154.86Z" fill="black"/>
<path d="M91.0882 146.776L98.6621 136.351" stroke="black" stroke-width="2"/>
<path d="M76.2991 137.524C78.6597 134.201 80.8046 129.914 82.3851 125.049C83.9657 120.185 84.7503 115.456 84.7937 111.38C86.8461 114.79 86.8815 120.244 85.0398 125.912C83.1982 131.58 79.9638 135.972 76.2991 137.524Z" fill="black"/>
<path d="M76.8094 133.173C78.9161 131.046 81.7065 128.526 82.7931 125.182C83.8797 121.838 83.1033 118.159 82.6494 115.2C85.2539 117.932 86.306 122.015 85.0398 125.912C83.7737 129.809 80.5223 132.494 76.8094 133.173Z" fill="black"/>
<path d="M76.3597 127.608C78.7049 127.092 81.1321 126.323 81.626 124.803C82.1199 123.283 80.6082 121.234 79.0143 119.438C83.6218 121.792 86.4323 124.406 85.8568 126.177C85.2813 127.949 81.4711 128.412 76.3597 127.608Z" fill="black"/>
<path d="M84.2228 125.647L96.4776 129.628" stroke="black" stroke-width="2"/>
<path d="M85.3853 75.2911C90.0525 76.712 95.7398 77.5462 101.877 77.5462C108.013 77.5462 113.701 76.712 118.368 75.2911C115.238 78.7969 109.027 80.8021 101.877 80.8021C94.726 80.8021 88.5153 78.7969 85.3853 75.2911Z" fill="black"/>
<path d="M90.5388 74.2891C93.7475 75.8592 97.6575 78.0466 101.877 78.0466C106.096 78.0466 110.006 75.8592 113.214 74.2891C111.062 78.163 106.793 80.8021 101.877 80.8021C96.9606 80.8021 92.6907 78.163 90.5388 74.2891Z" fill="black"/>
<path d="M96.7231 71.7841C98.1816 74.1997 99.9588 76.6151 101.877 76.6151C103.794 76.6151 105.572 74.1997 107.03 71.7841C106.052 77.744 104.111 81.8041 101.877 81.8041C99.642 81.8041 97.7012 77.744 96.7231 71.7841Z" fill="black"/>
<path d="M101.877 79.2991L101.877 121.049" stroke="black" stroke-width="2"/>
<path d="M142.858 60.4473C145.798 64.3402 149.909 68.358 154.874 71.9651C159.839 75.5722 164.93 78.2403 169.541 79.834C164.948 80.8305 158.745 78.8021 152.96 74.5992C147.175 70.3962 143.329 65.1234 142.858 60.4473Z" fill="#FF3F00"/>
<path d="M147.616 62.6659C149.289 65.8222 151.166 69.89 154.58 72.3699C157.993 74.8498 162.442 75.3785 165.961 75.9942C161.943 77.8635 156.937 77.4887 152.96 74.5992C148.983 71.7096 147.08 67.0648 147.616 62.6659Z" fill="#FF3F00"/>
<path d="M154.091 64.2743C153.851 67.0859 153.869 70.0846 155.421 71.2119C156.972 72.3391 159.83 71.4296 162.43 70.3326C158.135 74.5794 154.179 76.7232 152.371 75.4098C150.563 74.0964 151.379 69.6709 154.091 64.2743Z" fill="#FF3F00"/>
<path d="M150.226 98.4371C150.317 103.315 151.281 108.982 153.177 114.818C155.073 120.655 157.624 125.806 160.418 129.805C156.116 127.912 152.29 122.625 150.081 115.824C147.871 109.024 147.859 102.497 150.226 98.4371Z" fill="black"/>
<path d="M152.771 103.029C152.269 106.566 151.397 110.96 152.701 114.973C154.005 118.985 157.293 122.028 159.778 124.594C155.429 123.745 151.6 120.5 150.081 115.824C148.561 111.149 149.752 106.272 152.771 103.029Z" fill="black"/>
<path d="M157.065 108.136C155.218 110.27 153.47 112.707 154.063 114.53C154.655 116.354 157.502 117.298 160.25 117.939C154.279 118.85 149.818 118.259 149.128 116.134C148.437 114.009 151.699 110.908 157.065 108.136Z" fill="black"/>
<path d="M151.51 115.36L111.803 128.261" stroke="black" stroke-width="2"/>
<path d="M160.418 133.168C157.624 137.168 155.073 142.319 153.177 148.155C151.281 153.992 150.317 159.658 150.226 164.536C147.859 160.476 147.871 153.95 150.081 147.149C152.29 140.349 156.116 135.061 160.418 133.168Z" fill="black"/>
<path d="M159.778 138.379C157.294 140.945 154.005 143.988 152.701 148.001C151.397 152.013 152.269 156.408 152.771 159.945C149.752 156.701 148.561 151.825 150.081 147.149C151.6 142.474 155.429 139.228 159.778 138.379Z" fill="black"/>
<path d="M160.25 145.035C157.502 145.675 154.655 146.619 154.063 148.443C153.47 150.267 155.218 152.704 157.065 154.837C151.699 152.065 148.437 148.965 149.128 146.839C149.818 144.714 154.279 144.123 160.25 145.035Z" fill="black"/>
<path d="M151.51 147.614L111.803 134.712" stroke="black" stroke-width="2"/>
<path d="M148.249 167.257C143.638 168.85 138.547 171.518 133.582 175.126C128.617 178.733 124.506 182.75 121.566 186.643C122.037 181.967 125.883 176.694 131.668 172.491C137.453 168.288 143.656 166.26 148.249 167.257Z" fill="black"/>
<path d="M144.669 171.096C141.15 171.712 136.701 172.241 133.288 174.721C129.875 177.201 127.997 181.268 126.324 184.425C125.788 180.026 127.691 175.381 131.668 172.491C135.645 169.602 140.651 169.227 144.669 171.096Z" fill="black"/>
<path d="M141.138 176.758C138.538 175.661 135.681 174.752 134.129 175.879C132.578 177.006 132.56 180.005 132.8 182.816C130.088 177.42 129.272 172.994 131.079 171.681C132.887 170.367 136.844 172.511 141.138 176.758Z" fill="black"/>
<path d="M132.552 173.707L108.012 139.931" stroke="black" stroke-width="2"/>
<path d="M118.368 187.682C113.701 186.261 108.013 185.427 101.877 185.427C95.7398 185.427 90.0525 186.261 85.3854 187.682C88.5154 184.177 94.7261 182.171 101.877 182.171C109.027 182.171 115.238 184.177 118.368 187.682Z" fill="black"/>
<path d="M113.214 188.684C110.006 187.114 106.096 184.927 101.877 184.927C97.6576 184.927 93.7476 187.114 90.5389 188.684C92.6908 184.81 96.9606 182.171 101.877 182.171C106.793 182.171 111.063 184.81 113.214 188.684Z" fill="black"/>
<path d="M107.03 191.189C105.572 188.774 103.794 186.358 101.877 186.358C99.9589 186.358 98.1816 188.774 96.7231 191.189C97.7013 185.229 99.6421 181.169 101.877 181.169C104.111 181.169 106.052 185.229 107.03 191.189Z" fill="black"/>
<path d="M101.877 183.674L101.877 141.924" stroke="black" stroke-width="2"/>
<path d="M82.1874 186.643C79.2468 182.75 75.136 178.733 70.1712 175.125C65.2064 171.518 60.115 168.85 55.504 167.257C60.0969 166.26 66.3001 168.288 72.085 172.491C77.8699 176.694 81.7158 181.967 82.1874 186.643Z" fill="black"/>
<path d="M77.4292 184.425C75.7562 181.268 73.8786 177.201 70.4653 174.721C67.052 172.241 62.6031 171.712 59.0843 171.096C63.1023 169.227 68.1078 169.602 72.085 172.491C76.0621 175.381 77.9653 180.026 77.4292 184.425Z" fill="black"/>
<path d="M70.9536 182.816C71.1936 180.005 71.1754 177.006 69.624 175.879C68.0725 174.751 65.2149 175.661 62.615 176.758C66.9095 172.511 70.8661 170.367 72.6739 171.681C74.4817 172.994 73.6655 177.42 70.9536 182.816Z" fill="black"/>
<path d="M71.2015 173.707L95.7416 139.931" stroke="black" stroke-width="2"/>
<path d="M53.5275 164.536C53.4367 159.658 52.4725 153.992 50.5761 148.155C48.6798 142.319 46.129 137.168 43.3353 133.168C47.6368 135.061 51.4631 140.349 53.6727 147.149C55.8823 153.95 55.8945 160.476 53.5275 164.536Z" fill="black"/>
<path d="M50.982 159.945C51.4838 156.408 52.3558 152.013 51.0521 148.001C49.7483 143.988 46.4598 140.945 43.9749 138.379C48.3242 139.228 52.1536 142.474 53.6727 147.149C55.1918 151.825 54.0014 156.701 50.982 159.945Z" fill="black"/>
<path d="M46.6886 154.837C48.5353 152.704 50.2833 150.267 49.6907 148.443C49.0981 146.619 46.2517 145.675 43.5035 145.035C49.4741 144.123 53.9351 144.714 54.6257 146.84C55.3162 148.965 52.0546 152.065 46.6886 154.837Z" fill="black"/>
<path d="M52.2432 147.614L91.9499 134.712" stroke="black" stroke-width="2"/>
<path d="M43.3353 129.805C46.1289 125.806 48.6797 120.655 50.5761 114.818C52.4725 108.982 53.4366 103.315 53.5275 98.4371C55.8945 102.497 55.8823 109.024 53.6727 115.824C51.463 122.625 47.6368 127.912 43.3353 129.805Z" fill="black"/>
<path d="M43.9749 124.594C46.4597 122.028 49.7483 118.985 51.052 114.973C52.3558 110.96 51.4838 106.566 50.982 103.029C54.0014 106.272 55.1918 111.149 53.6727 115.824C52.1535 120.5 48.3242 123.745 43.9749 124.594Z" fill="black"/>
<path d="M43.5035 117.939C46.2516 117.298 49.098 116.354 49.6906 114.53C50.2833 112.707 48.5353 110.27 46.6886 108.136C52.0546 110.908 55.3161 114.009 54.6256 116.134C53.9351 118.259 49.474 118.85 43.5035 117.939Z" fill="black"/>
<path d="M52.2432 115.36L91.9499 128.261" stroke="black" stroke-width="2"/>
<path d="M55.5039 95.7167C60.1149 94.123 65.2063 91.455 70.1711 87.8478C75.1359 84.2407 79.2467 80.223 82.1873 76.3301C81.7158 81.0061 77.8698 86.2789 72.0849 90.4819C66.3 94.6849 60.0968 96.7132 55.5039 95.7167Z" fill="black"/>
<path d="M59.0842 91.8769C62.603 91.2612 67.0519 90.7326 70.4652 88.2527C73.8785 85.7728 75.7561 81.7049 77.4291 78.5486C77.9652 82.9476 76.062 87.5924 72.0849 90.4819C68.1077 93.3715 63.1022 93.7462 59.0842 91.8769Z" fill="black"/>
<path d="M62.6149 86.2154C65.2148 87.3124 68.0724 88.2218 69.6239 87.0946C71.1754 85.9674 71.1935 82.9686 70.9535 80.157C73.6654 85.5537 74.4816 89.9791 72.6738 91.2926C70.8661 92.606 66.9094 90.4621 62.6149 86.2154Z" fill="black"/>
<path d="M71.2014 89.266L95.7415 123.042" stroke="black" stroke-width="2"/>
</svg>
