<svg width="258" height="176" viewBox="0 0 258 176" fill="none" xmlns="http://www.w3.org/2000/svg">
<g clip-path="url(#clip0_4359_47)">
<path fill-rule="evenodd" clip-rule="evenodd" d="M128.854 40C101.839 40 80 62 80 89.217C80 110.973 93.993 129.389 113.405 135.907C115.832 136.397 116.721 134.848 116.721 133.545C116.721 132.404 116.641 128.493 116.641 124.418C103.051 127.352 100.221 118.551 100.221 118.551C98.037 112.847 94.801 111.381 94.801 111.381C90.353 108.366 95.125 108.366 95.125 108.366C100.059 108.692 102.648 113.418 102.648 113.418C107.015 120.914 114.052 118.796 116.883 117.492C117.287 114.314 118.582 112.114 119.957 110.892C109.118 109.751 97.714 105.514 97.714 86.609C97.714 81.231 99.654 76.831 102.728 73.409C102.243 72.187 100.544 67.134 103.214 60.371C103.214 60.371 107.339 59.067 116.64 65.423C120.622 64.3457 124.729 63.7976 128.854 63.793C132.979 63.793 137.184 64.364 141.067 65.423C150.369 59.067 154.494 60.371 154.494 60.371C157.164 67.134 155.464 72.187 154.979 73.409C158.134 76.831 159.994 81.231 159.994 86.609C159.994 105.514 148.59 109.669 137.67 110.892C139.45 112.44 140.986 115.373 140.986 120.018C140.986 126.618 140.906 131.915 140.906 133.544C140.906 134.848 141.796 136.397 144.222 135.908C163.634 129.388 177.627 110.973 177.627 89.217C177.707 62 155.788 40 128.854 40Z" fill="#24292F"/>
</g>
<defs>
<clipPath id="clip0_4359_47">
<rect width="98" height="96" fill="white" transform="translate(80 40)"/>
</clipPath>
</defs>
</svg>
