<svg width="339" height="232" viewBox="0 0 339 232" fill="none" xmlns="http://www.w3.org/2000/svg">
<path d="M288.444 111.24C286.204 111.24 284.444 110.6 283.164 109.32C281.884 108.04 281.244 106.28 281.244 104.04V94.64H275.324V89.24H281.244V83.04H287.244V89.24H295.844V94.64H287.244V103.84C287.244 104.427 287.39 104.907 287.684 105.28C288.004 105.653 288.457 105.84 289.044 105.84H295.644V111.24H288.444Z" fill="black"/>
<path d="M253.019 111.24V82.04H258.739V89.24L258.579 93.44H260.219L258.379 94.76C258.406 93 258.979 91.5734 260.099 90.48C261.219 89.3867 262.673 88.84 264.459 88.84C266.619 88.84 268.339 89.5867 269.619 91.08C270.926 92.5467 271.579 94.5067 271.579 96.96V111.24H265.859V97.56C265.859 96.36 265.539 95.44 264.899 94.8C264.286 94.1334 263.419 93.8 262.299 93.8C261.179 93.8 260.299 94.1334 259.659 94.8C259.046 95.44 258.739 96.3734 258.739 97.6V111.24H253.019Z" fill="black"/>
<path d="M232.355 118.44V114.28H238.555C239.728 114.28 240.635 113.96 241.275 113.32C241.915 112.707 242.235 111.867 242.235 110.8V109.48L242.315 105.04H241.235L242.795 103.12C242.795 105.227 242.222 106.893 241.075 108.12C239.928 109.32 238.395 109.92 236.475 109.92C234.235 109.92 232.448 109.173 231.115 107.68C229.808 106.16 229.155 104.107 229.155 101.52V97.24C229.155 94.68 229.808 92.64 231.115 91.12C232.448 89.6 234.235 88.84 236.475 88.84C238.395 88.84 239.928 89.4533 241.075 90.68C242.222 91.9066 242.795 93.5733 242.795 95.68L241.235 93.04H242.315V89.24H247.195V110.92C247.195 113.24 246.422 115.067 244.875 116.4C243.355 117.76 241.275 118.44 238.635 118.44H232.355ZM238.155 105.64C239.435 105.64 240.422 105.267 241.115 104.52C241.835 103.747 242.195 102.68 242.195 101.32V97.48C242.195 96.12 241.835 95.0666 241.115 94.32C240.422 93.5466 239.435 93.16 238.155 93.16C236.875 93.16 235.888 93.5333 235.195 94.28C234.502 95 234.155 96.0133 234.155 97.32V101.48C234.155 102.787 234.502 103.813 235.195 104.56C235.888 105.28 236.875 105.64 238.155 105.64Z" fill="black"/>
<path d="M205.531 111.24V107.36H213.171V93.12H206.331V89.24H217.451V107.36H224.531V111.24H205.531ZM214.931 85.4C213.997 85.4 213.251 85.16 212.691 84.68C212.157 84.2 211.891 83.5467 211.891 82.72C211.891 81.8933 212.157 81.24 212.691 80.76C213.251 80.2533 213.997 80 214.931 80C215.864 80 216.597 80.2533 217.131 80.76C217.691 81.24 217.971 81.8933 217.971 82.72C217.971 83.5467 217.691 84.2 217.131 84.68C216.597 85.16 215.864 85.4 214.931 85.4Z" fill="black"/>
<path d="M190.306 111.64C188.546 111.64 187.013 111.293 185.706 110.6C184.4 109.88 183.373 108.867 182.626 107.56C181.906 106.227 181.546 104.653 181.546 102.84V97.64C181.546 95.8 181.906 94.2266 182.626 92.92C183.373 91.6133 184.4 90.6133 185.706 89.92C187.013 89.2 188.546 88.84 190.306 88.84C192.066 88.84 193.6 89.1866 194.906 89.88C196.213 90.5733 197.226 91.56 197.946 92.84C198.693 94.0933 199.066 95.5733 199.066 97.28V101.24H185.306V103.2C185.306 104.8 185.76 106.053 186.666 106.96C187.573 107.867 188.786 108.32 190.306 108.32C191.586 108.32 192.64 108.08 193.466 107.6C194.32 107.093 194.84 106.427 195.026 105.6H198.866C198.6 107.44 197.68 108.907 196.106 110C194.56 111.093 192.626 111.64 190.306 111.64ZM195.306 98.72V97.28C195.306 95.5733 194.866 94.2666 193.986 93.36C193.133 92.4266 191.906 91.96 190.306 91.96C188.706 91.96 187.466 92.4266 186.586 93.36C185.733 94.2933 185.306 95.6 185.306 97.28V98.32H195.586L195.306 98.72Z" fill="black"/>
<path d="M159.162 111.24L155.562 89.24H158.682L160.922 104.76C161.002 105.347 161.082 106 161.162 106.72C161.242 107.413 161.295 107.987 161.322 108.44C161.375 107.987 161.429 107.413 161.482 106.72C161.562 106 161.655 105.347 161.762 104.76L164.522 89.24H168.122L170.882 104.76C170.989 105.347 171.082 106 171.162 106.72C171.269 107.413 171.335 107.987 171.362 108.44C171.415 107.987 171.482 107.413 171.562 106.72C171.642 106 171.722 105.347 171.802 104.76L174.122 89.24H177.082L173.322 111.24H169.362L166.842 96.04C166.735 95.2933 166.629 94.5067 166.522 93.68C166.442 92.8267 166.375 92.1733 166.322 91.72C166.295 92.0133 166.255 92.4133 166.202 92.92C166.149 93.4 166.082 93.92 166.002 94.48C165.922 95.0133 165.842 95.5333 165.762 96.04L163.122 111.24H159.162Z" fill="black"/>
<path d="M144.537 111.24C142.751 111.24 141.311 110.733 140.217 109.72C139.151 108.68 138.617 107.28 138.617 105.52V92.32H132.297V89.24H138.617V83.04H142.057V89.24H151.057V92.32H142.057V105.52C142.057 106.32 142.284 106.96 142.737 107.44C143.191 107.92 143.791 108.16 144.537 108.16H150.857V111.24H144.537Z" fill="black"/>
<path d="M110.233 111.24V82.04H113.393V88.92V93.28H114.153L113.313 94.44C113.313 92.68 113.846 91.3067 114.913 90.32C116.006 89.3334 117.486 88.84 119.353 88.84C121.54 88.84 123.286 89.5334 124.593 90.92C125.9 92.28 126.553 94.1334 126.553 96.48V111.24H123.393V97C123.393 95.24 122.953 93.8934 122.073 92.96C121.193 92 119.993 91.52 118.473 91.52C116.9 91.52 115.66 92.0134 114.753 93C113.846 93.9867 113.393 95.36 113.393 97.12V111.24H110.233Z" fill="black"/>
<path d="M89.0088 118.44V115.68H95.0488C96.4088 115.68 97.4621 115.307 98.2088 114.56C98.9821 113.813 99.3688 112.773 99.3688 111.44V109.52L99.4088 105.56H98.6888L99.4888 104.28C99.4888 105.96 98.9288 107.28 97.8088 108.24C96.7155 109.2 95.2621 109.68 93.4488 109.68C91.2088 109.68 89.4221 108.96 88.0888 107.52C86.7821 106.08 86.1288 104.12 86.1288 101.64V96.96C86.1288 94.48 86.7821 92.5066 88.0888 91.04C89.4221 89.5733 91.2088 88.84 93.4488 88.84C95.2621 88.84 96.7155 89.3333 97.8088 90.32C98.9288 91.3066 99.4888 92.64 99.4888 94.32L98.7688 93.04H99.4088V89.24H102.409V111.44C102.409 113.653 101.755 115.373 100.449 116.6C99.1688 117.827 97.3555 118.44 95.0088 118.44H89.0088ZM94.2888 107.16C95.8888 107.16 97.1421 106.667 98.0488 105.68C98.9555 104.667 99.4088 103.28 99.4088 101.52V97.08C99.4088 95.32 98.9555 93.9466 98.0488 92.96C97.1421 91.9733 95.8888 91.48 94.2888 91.48C92.6621 91.48 91.3955 91.96 90.4888 92.92C89.6088 93.88 89.1688 95.1866 89.1688 96.84V101.8C89.1688 103.453 89.6088 104.76 90.4888 105.72C91.3955 106.68 92.6621 107.16 94.2888 107.16Z" fill="black"/>
<path d="M62.0244 111.24V108.84H69.9844V91.6399H62.9444V89.2399H72.6244V108.84H80.1044V111.24H62.0244ZM70.9844 85.1199C70.2111 85.1199 69.5977 84.9199 69.1444 84.5199C68.6911 84.0933 68.4644 83.5199 68.4644 82.7999C68.4644 82.0799 68.6911 81.5066 69.1444 81.0799C69.5977 80.6533 70.2111 80.4399 70.9844 80.4399C71.7577 80.4399 72.3711 80.6533 72.8244 81.0799C73.2778 81.5066 73.5044 82.0799 73.5044 82.7999C73.5044 83.5199 73.2778 84.0933 72.8244 84.5199C72.3711 84.9199 71.7577 85.1199 70.9844 85.1199Z" fill="black"/>
<path d="M40 111.24V82.04H42V109.4H56.2V111.24H40Z" fill="black"/>
<path d="M40.4 141.24H298.4" stroke="black" stroke-width="2"/>
<circle cx="83.4" cy="141.24" r="10" fill="#FF3F00"/>
</svg>
