<svg width="266" height="308" viewBox="0 0 266 308" fill="none" xmlns="http://www.w3.org/2000/svg">
<path d="M64 106V154H106M84 154V202H128M62 58H40V106H84M106 202V250H150" stroke="black" stroke-width="2"/>
<circle cx="64" cy="58" r="6" fill="black"/>
<circle cx="86" cy="106" r="6" fill="black"/>
<circle cx="108" cy="154" r="6" fill="black"/>
<circle cx="128" cy="202" r="6" fill="black"/>
<circle cx="148" cy="250" r="6" fill="black"/>
<path d="M226 76H92V48H226V76Z" fill="#FF3F00"/>
<path d="M92 76H226V48M92 76V48M92 76L84 68V40M92 48H226M92 48L84 40M226 48L218 40H84" stroke="black" stroke-width="2"/>
<path d="M218 88H104V116M218 88V116M218 88L226 96V124M218 116H104M218 116L226 124M104 116L112 124H226" stroke="black" stroke-width="2"/>
<path d="M226 172H136V144H226V172Z" fill="#FF3F00"/>
<path d="M136 172H226V144M136 172V144M136 172L128 164V136M136 144H226M136 144L128 136M226 144L218 136H128" stroke="black" stroke-width="2"/>
<path d="M226 268H185V240H226V268Z" fill="#FF3F00"/>
<path d="M185 268H226V240M185 268V240M185 268L177 260V232M185 240H226M185 240L177 232M226 240L218 232H177" stroke="black" stroke-width="2"/>
<path d="M218 184H148V212M218 184V212M218 184L226 192V220M218 212H148M218 212L226 220M148 212L156 220H226" stroke="black" stroke-width="2"/>
<path d="M129.232 68V56.32H132.816C133.563 56.32 134.208 56.4427 134.752 56.688C135.307 56.9333 135.733 57.2853 136.032 57.744C136.341 58.192 136.496 58.72 136.496 59.328C136.496 59.7547 136.411 60.144 136.24 60.496C136.08 60.848 135.845 61.1413 135.536 61.376C135.237 61.6 134.896 61.744 134.512 61.808V61.84C134.949 61.8933 135.339 62.0533 135.68 62.32C136.021 62.576 136.288 62.912 136.48 63.328C136.672 63.7333 136.768 64.1813 136.768 64.672C136.768 65.344 136.613 65.9307 136.304 66.432C135.995 66.9333 135.557 67.3227 134.992 67.6C134.427 67.8667 133.76 68 132.992 68H129.232ZM131.184 66.336H132.88C133.467 66.336 133.925 66.1813 134.256 65.872C134.597 65.552 134.768 65.12 134.768 64.576C134.768 64.032 134.597 63.5947 134.256 63.264C133.925 62.9227 133.467 62.752 132.88 62.752H131.184V66.336ZM131.184 61.136H132.784C133.317 61.136 133.733 60.9973 134.032 60.72C134.341 60.432 134.496 60.0427 134.496 59.552C134.496 59.0613 134.341 58.6773 134.032 58.4C133.733 58.1227 133.317 57.984 132.784 57.984H131.184V61.136ZM143.818 68C143.242 68 142.735 67.8827 142.298 67.648C141.871 67.4133 141.535 67.0827 141.29 66.656C141.044 66.2187 140.922 65.7173 140.922 65.152V58.128H138.026V56.32H142.922V65.104C142.922 65.4347 143.012 65.7013 143.194 65.904C143.386 66.096 143.642 66.192 143.962 66.192H146.538V68H143.818ZM151.988 68.144C151.241 68.144 150.59 68 150.036 67.712C149.481 67.424 149.054 67.0187 148.756 66.496C148.457 65.9627 148.308 65.3387 148.308 64.624V62.576C148.308 61.8507 148.457 61.2267 148.756 60.704C149.054 60.1813 149.481 59.776 150.036 59.488C150.59 59.2 151.241 59.056 151.988 59.056C152.745 59.056 153.396 59.2 153.94 59.488C154.494 59.776 154.921 60.1813 155.22 60.704C155.518 61.2267 155.668 61.8507 155.668 62.576V64.624C155.668 65.3387 155.518 65.9627 155.22 66.496C154.921 67.0187 154.494 67.424 153.94 67.712C153.396 68 152.745 68.144 151.988 68.144ZM151.988 66.4C152.521 66.4 152.932 66.256 153.22 65.968C153.518 65.6693 153.668 65.2427 153.668 64.688V62.512C153.668 61.9467 153.518 61.52 153.22 61.232C152.932 60.944 152.521 60.8 151.988 60.8C151.465 60.8 151.054 60.944 150.756 61.232C150.457 61.52 150.308 61.9467 150.308 62.512V64.688C150.308 65.2427 150.457 65.6693 150.756 65.968C151.054 66.256 151.465 66.4 151.988 66.4ZM161.725 68.16C160.968 68.16 160.307 68.0213 159.741 67.744C159.187 67.456 158.755 67.056 158.445 66.544C158.136 66.0213 157.981 65.408 157.981 64.704V62.496C157.981 61.7813 158.136 61.168 158.445 60.656C158.755 60.144 159.187 59.7493 159.741 59.472C160.307 59.184 160.968 59.04 161.725 59.04C162.824 59.04 163.704 59.328 164.365 59.904C165.027 60.4693 165.379 61.2427 165.421 62.224H163.453C163.421 61.7653 163.251 61.4133 162.941 61.168C162.632 60.912 162.227 60.784 161.725 60.784C161.181 60.784 160.755 60.9333 160.445 61.232C160.136 61.52 159.981 61.936 159.981 62.48V64.704C159.981 65.248 160.136 65.6693 160.445 65.968C160.755 66.2667 161.181 66.416 161.725 66.416C162.227 66.416 162.632 66.2933 162.941 66.048C163.251 65.792 163.421 65.4347 163.453 64.976H165.421C165.379 65.9573 165.027 66.736 164.365 67.312C163.704 67.8773 162.824 68.16 161.725 68.16ZM167.687 68V56.32H169.687V62.656H171.095L173.191 59.2H175.415L172.807 63.456L175.511 68H173.239L171.095 64.352H169.687V68H167.687ZM180.401 68.144C179.707 68.144 179.105 68.0373 178.593 67.824C178.091 67.6107 177.702 67.3067 177.425 66.912C177.147 66.5173 177.009 66.048 177.009 65.504H178.977C178.977 65.8453 179.099 66.1067 179.345 66.288C179.601 66.4693 179.953 66.56 180.401 66.56H181.105C181.585 66.56 181.953 66.4693 182.209 66.288C182.475 66.096 182.609 65.8347 182.609 65.504C182.609 65.184 182.518 64.944 182.337 64.784C182.155 64.624 181.878 64.5227 181.505 64.48L179.313 64.192C178.609 64.1067 178.065 63.8347 177.681 63.376C177.307 62.9173 177.121 62.336 177.121 61.632C177.121 60.8 177.398 60.1653 177.953 59.728C178.507 59.28 179.307 59.056 180.353 59.056H181.089C182.07 59.056 182.859 59.28 183.457 59.728C184.054 60.176 184.363 60.7733 184.385 61.52H182.401C182.39 61.2427 182.267 61.024 182.033 60.864C181.798 60.6933 181.483 60.608 181.089 60.608H180.353C179.926 60.608 179.601 60.6987 179.377 60.88C179.153 61.0507 179.041 61.2853 179.041 61.584C179.041 61.8507 179.121 62.048 179.281 62.176C179.451 62.2933 179.697 62.3733 180.017 62.416L182.081 62.704C182.891 62.8107 183.499 63.104 183.905 63.584C184.321 64.0533 184.529 64.6827 184.529 65.472C184.529 66.3253 184.235 66.9867 183.649 67.456C183.073 67.9147 182.225 68.144 181.105 68.144H180.401Z" fill="black"/>
<path d="M152.232 164V152.32H155.816C156.563 152.32 157.208 152.443 157.752 152.688C158.307 152.933 158.733 153.285 159.032 153.744C159.341 154.192 159.496 154.72 159.496 155.328C159.496 155.755 159.411 156.144 159.24 156.496C159.08 156.848 158.845 157.141 158.536 157.376C158.237 157.6 157.896 157.744 157.512 157.808V157.84C157.949 157.893 158.339 158.053 158.68 158.32C159.021 158.576 159.288 158.912 159.48 159.328C159.672 159.733 159.768 160.181 159.768 160.672C159.768 161.344 159.613 161.931 159.304 162.432C158.995 162.933 158.557 163.323 157.992 163.6C157.427 163.867 156.76 164 155.992 164H152.232ZM154.184 162.336H155.88C156.467 162.336 156.925 162.181 157.256 161.872C157.597 161.552 157.768 161.12 157.768 160.576C157.768 160.032 157.597 159.595 157.256 159.264C156.925 158.923 156.467 158.752 155.88 158.752H154.184V162.336ZM154.184 157.136H155.784C156.317 157.136 156.733 156.997 157.032 156.72C157.341 156.432 157.496 156.043 157.496 155.552C157.496 155.061 157.341 154.677 157.032 154.4C156.733 154.123 156.317 153.984 155.784 153.984H154.184V157.136ZM166.818 164C166.242 164 165.735 163.883 165.298 163.648C164.871 163.413 164.535 163.083 164.29 162.656C164.044 162.219 163.922 161.717 163.922 161.152V154.128H161.026V152.32H165.922V161.104C165.922 161.435 166.012 161.701 166.194 161.904C166.386 162.096 166.642 162.192 166.962 162.192H169.538V164H166.818ZM174.988 164.144C174.241 164.144 173.59 164 173.036 163.712C172.481 163.424 172.054 163.019 171.756 162.496C171.457 161.963 171.308 161.339 171.308 160.624V158.576C171.308 157.851 171.457 157.227 171.756 156.704C172.054 156.181 172.481 155.776 173.036 155.488C173.59 155.2 174.241 155.056 174.988 155.056C175.745 155.056 176.396 155.2 176.94 155.488C177.494 155.776 177.921 156.181 178.22 156.704C178.518 157.227 178.668 157.851 178.668 158.576V160.624C178.668 161.339 178.518 161.963 178.22 162.496C177.921 163.019 177.494 163.424 176.94 163.712C176.396 164 175.745 164.144 174.988 164.144ZM174.988 162.4C175.521 162.4 175.932 162.256 176.22 161.968C176.518 161.669 176.668 161.243 176.668 160.688V158.512C176.668 157.947 176.518 157.52 176.22 157.232C175.932 156.944 175.521 156.8 174.988 156.8C174.465 156.8 174.054 156.944 173.756 157.232C173.457 157.52 173.308 157.947 173.308 158.512V160.688C173.308 161.243 173.457 161.669 173.756 161.968C174.054 162.256 174.465 162.4 174.988 162.4ZM184.725 164.16C183.968 164.16 183.307 164.021 182.741 163.744C182.187 163.456 181.755 163.056 181.445 162.544C181.136 162.021 180.981 161.408 180.981 160.704V158.496C180.981 157.781 181.136 157.168 181.445 156.656C181.755 156.144 182.187 155.749 182.741 155.472C183.307 155.184 183.968 155.04 184.725 155.04C185.824 155.04 186.704 155.328 187.365 155.904C188.027 156.469 188.379 157.243 188.421 158.224H186.453C186.421 157.765 186.251 157.413 185.941 157.168C185.632 156.912 185.227 156.784 184.725 156.784C184.181 156.784 183.755 156.933 183.445 157.232C183.136 157.52 182.981 157.936 182.981 158.48V160.704C182.981 161.248 183.136 161.669 183.445 161.968C183.755 162.267 184.181 162.416 184.725 162.416C185.227 162.416 185.632 162.293 185.941 162.048C186.251 161.792 186.421 161.435 186.453 160.976H188.421C188.379 161.957 188.027 162.736 187.365 163.312C186.704 163.877 185.824 164.16 184.725 164.16ZM190.687 164V152.32H192.687V158.656H194.095L196.191 155.2H198.415L195.807 159.456L198.511 164H196.239L194.095 160.352H192.687V164H190.687ZM203.401 164.144C202.707 164.144 202.105 164.037 201.593 163.824C201.091 163.611 200.702 163.307 200.425 162.912C200.147 162.517 200.009 162.048 200.009 161.504H201.977C201.977 161.845 202.099 162.107 202.345 162.288C202.601 162.469 202.953 162.56 203.401 162.56H204.105C204.585 162.56 204.953 162.469 205.209 162.288C205.475 162.096 205.609 161.835 205.609 161.504C205.609 161.184 205.518 160.944 205.337 160.784C205.155 160.624 204.878 160.523 204.505 160.48L202.313 160.192C201.609 160.107 201.065 159.835 200.681 159.376C200.307 158.917 200.121 158.336 200.121 157.632C200.121 156.8 200.398 156.165 200.953 155.728C201.507 155.28 202.307 155.056 203.353 155.056H204.089C205.07 155.056 205.859 155.28 206.457 155.728C207.054 156.176 207.363 156.773 207.385 157.52H205.401C205.39 157.243 205.267 157.024 205.033 156.864C204.798 156.693 204.483 156.608 204.089 156.608H203.353C202.926 156.608 202.601 156.699 202.377 156.88C202.153 157.051 202.041 157.285 202.041 157.584C202.041 157.851 202.121 158.048 202.281 158.176C202.451 158.293 202.697 158.373 203.017 158.416L205.081 158.704C205.891 158.811 206.499 159.104 206.905 159.584C207.321 160.053 207.529 160.683 207.529 161.472C207.529 162.325 207.235 162.987 206.649 163.456C206.073 163.915 205.225 164.144 204.105 164.144H203.401Z" fill="black"/>
<path d="M194.693 256.235C193.765 256.235 193.008 255.472 193.008 254.544C193.008 253.632 193.765 252.869 194.693 252.869C195.616 252.869 196.368 253.632 196.368 254.544C196.368 255.472 195.616 256.235 194.693 256.235ZM204.787 256.235C203.859 256.235 203.102 255.472 203.102 254.544C203.102 253.632 203.859 252.869 204.787 252.869C205.71 252.869 206.462 253.632 206.462 254.544C206.462 255.472 205.71 256.235 204.787 256.235ZM214.881 256.235C213.953 256.235 213.195 255.472 213.195 254.544C213.195 253.632 213.953 252.869 214.881 252.869C215.804 252.869 216.556 253.632 216.556 254.544C216.556 255.472 215.804 256.235 214.881 256.235Z" fill="black"/>
<path d="M136.632 108L135.256 99.2H136.84L137.624 104.592C137.667 104.923 137.704 105.28 137.736 105.664C137.768 106.048 137.795 106.368 137.816 106.624C137.837 106.368 137.859 106.048 137.88 105.664C137.912 105.28 137.96 104.923 138.024 104.592L138.984 99.2H140.648L141.576 104.592C141.64 104.923 141.688 105.285 141.72 105.68C141.763 106.064 141.795 106.384 141.816 106.64C141.837 106.384 141.859 106.064 141.88 105.68C141.912 105.285 141.955 104.923 142.008 104.592L142.808 99.2H144.344L142.936 108H140.872L140.04 102.576C139.997 102.267 139.949 101.92 139.896 101.536C139.853 101.141 139.821 100.827 139.8 100.592C139.8 100.752 139.784 100.949 139.752 101.184C139.72 101.419 139.688 101.659 139.656 101.904C139.624 102.149 139.592 102.373 139.56 102.576L138.696 108H136.632ZM145.81 108V106.192H148.818V101.008H146.13V99.2H150.818V106.192H153.522V108H145.81ZM149.682 97.728C149.276 97.728 148.956 97.6267 148.722 97.424C148.487 97.2107 148.37 96.928 148.37 96.576C148.37 96.224 148.487 95.9467 148.722 95.744C148.956 95.5307 149.276 95.424 149.682 95.424C150.087 95.424 150.407 95.5307 150.642 95.744C150.876 95.9467 150.994 96.224 150.994 96.576C150.994 96.928 150.876 97.2107 150.642 97.424C150.407 97.6267 150.087 97.728 149.682 97.728ZM159.868 108C159.046 108 158.39 107.765 157.9 107.296C157.42 106.816 157.18 106.171 157.18 105.36V101.008H154.748V99.2H157.18V96.72H159.196V99.2H162.7V101.008H159.196V105.312C159.196 105.568 159.265 105.781 159.404 105.952C159.553 106.112 159.756 106.192 160.012 106.192H162.62V108H159.868ZM165.013 108V96.32H167.013V99.2L166.965 100.88H167.509L166.917 101.344C166.928 100.64 167.152 100.08 167.589 99.664C168.027 99.248 168.608 99.04 169.333 99.04C170.197 99.04 170.885 99.328 171.397 99.904C171.92 100.48 172.181 101.253 172.181 102.224V108H170.181V102.464C170.181 101.92 170.043 101.504 169.765 101.216C169.488 100.917 169.104 100.768 168.613 100.768C168.112 100.768 167.717 100.917 167.429 101.216C167.152 101.515 167.013 101.941 167.013 102.496V108H165.013ZM174.591 108V106.192H177.599V101.008H174.911V99.2H179.599V106.192H182.303V108H174.591ZM178.463 97.728C178.058 97.728 177.738 97.6267 177.503 97.424C177.268 97.2107 177.151 96.928 177.151 96.576C177.151 96.224 177.268 95.9467 177.503 95.744C177.738 95.5307 178.058 95.424 178.463 95.424C178.868 95.424 179.188 95.5307 179.423 95.744C179.658 95.9467 179.775 96.224 179.775 96.576C179.775 96.928 179.658 97.2107 179.423 97.424C179.188 97.6267 178.868 97.728 178.463 97.728ZM184.201 108V99.2H186.153V100.88H186.697L186.105 101.344C186.115 100.64 186.339 100.08 186.777 99.664C187.214 99.248 187.795 99.04 188.521 99.04C189.385 99.04 190.073 99.328 190.585 99.904C191.107 100.48 191.369 101.253 191.369 102.224V108H189.369V102.464C189.369 101.92 189.23 101.504 188.953 101.216C188.675 100.917 188.291 100.768 187.801 100.768C187.299 100.768 186.905 100.917 186.617 101.216C186.339 101.515 186.201 101.941 186.201 102.496V108H184.201Z" fill="black"/>
<path d="M154.632 204L153.256 195.2H154.84L155.624 200.592C155.667 200.923 155.704 201.28 155.736 201.664C155.768 202.048 155.795 202.368 155.816 202.624C155.837 202.368 155.859 202.048 155.88 201.664C155.912 201.28 155.96 200.923 156.024 200.592L156.984 195.2H158.648L159.576 200.592C159.64 200.923 159.688 201.285 159.72 201.68C159.763 202.064 159.795 202.384 159.816 202.64C159.837 202.384 159.859 202.064 159.88 201.68C159.912 201.285 159.955 200.923 160.008 200.592L160.808 195.2H162.344L160.936 204H158.872L158.04 198.576C157.997 198.267 157.949 197.92 157.896 197.536C157.853 197.141 157.821 196.827 157.8 196.592C157.8 196.752 157.784 196.949 157.752 197.184C157.72 197.419 157.688 197.659 157.656 197.904C157.624 198.149 157.592 198.373 157.56 198.576L156.696 204H154.632ZM163.81 204V202.192H166.818V197.008H164.13V195.2H168.818V202.192H171.522V204H163.81ZM167.682 193.728C167.276 193.728 166.956 193.627 166.722 193.424C166.487 193.211 166.37 192.928 166.37 192.576C166.37 192.224 166.487 191.947 166.722 191.744C166.956 191.531 167.276 191.424 167.682 191.424C168.087 191.424 168.407 191.531 168.642 191.744C168.876 191.947 168.994 192.224 168.994 192.576C168.994 192.928 168.876 193.211 168.642 193.424C168.407 193.627 168.087 193.728 167.682 193.728ZM177.868 204C177.046 204 176.39 203.765 175.9 203.296C175.42 202.816 175.18 202.171 175.18 201.36V197.008H172.748V195.2H175.18V192.72H177.196V195.2H180.7V197.008H177.196V201.312C177.196 201.568 177.265 201.781 177.404 201.952C177.553 202.112 177.756 202.192 178.012 202.192H180.62V204H177.868ZM183.013 204V192.32H185.013V195.2L184.965 196.88H185.509L184.917 197.344C184.928 196.64 185.152 196.08 185.589 195.664C186.027 195.248 186.608 195.04 187.333 195.04C188.197 195.04 188.885 195.328 189.397 195.904C189.92 196.48 190.181 197.253 190.181 198.224V204H188.181V198.464C188.181 197.92 188.043 197.504 187.765 197.216C187.488 196.917 187.104 196.768 186.613 196.768C186.112 196.768 185.717 196.917 185.429 197.216C185.152 197.515 185.013 197.941 185.013 198.496V204H183.013ZM192.591 204V202.192H195.599V197.008H192.911V195.2H197.599V202.192H200.303V204H192.591ZM196.463 193.728C196.058 193.728 195.738 193.627 195.503 193.424C195.268 193.211 195.151 192.928 195.151 192.576C195.151 192.224 195.268 191.947 195.503 191.744C195.738 191.531 196.058 191.424 196.463 191.424C196.868 191.424 197.188 191.531 197.423 191.744C197.658 191.947 197.775 192.224 197.775 192.576C197.775 192.928 197.658 193.211 197.423 193.424C197.188 193.627 196.868 193.728 196.463 193.728ZM202.201 204V195.2H204.153V196.88H204.697L204.105 197.344C204.115 196.64 204.339 196.08 204.777 195.664C205.214 195.248 205.795 195.04 206.521 195.04C207.385 195.04 208.073 195.328 208.585 195.904C209.107 196.48 209.369 197.253 209.369 198.224V204H207.369V198.464C207.369 197.92 207.23 197.504 206.953 197.216C206.675 196.917 206.291 196.768 205.801 196.768C205.299 196.768 204.905 196.917 204.617 197.216C204.339 197.515 204.201 197.941 204.201 198.496V204H202.201Z" fill="black"/>
</svg>
