<svg xmlns="http://www.w3.org/2000/svg" viewBox="0 0 377 450.99">
  <path d="M229.16 184.31c-10.4-14.88-30.94-19.3-45.8-9.83l-26.08 16.62a29.92 29.92 0 0 0-13.52 20.05 31.51 31.51 0 0 0 3.11 20.23 30 30 0 0 0-4.47 11.18 31.89 31.89 0 0 0 5.44 24.12c10.4 14.88 30.94 19.3 45.8 9.83l26.08-16.62a29.92 29.92 0 0 0 13.52-20.05 31.53 31.53 0 0 0-3.11-20.23 30 30 0 0 0 4.47-11.18 31.88 31.88 0 0 0-5.44-24.12" style="fill:#ff3e00"/>
  <path d="M180.82 268.08a20.72 20.72 0 0 1-22.24-8.25 19.17 19.17 0 0 1-3.28-14.5 18.19 18.19 0 0 1 .63-2.43l.49-1.5 1.33.98a33.64 33.64 0 0 0 10.2 5.1l.98.3-.1.96a5.85 5.85 0 0 0 1.06 3.88 6.24 6.24 0 0 0 6.7 2.48 5.74 5.74 0 0 0 1.6-.7l26.08-16.62a5.43 5.43 0 0 0 2.45-3.63 5.8 5.8 0 0 0-.99-4.38 6.24 6.24 0 0 0-6.7-2.48 5.74 5.74 0 0 0-1.6.7l-9.95 6.35a19.03 19.03 0 0 1-5.3 2.32 20.72 20.72 0 0 1-22.23-8.24 19.17 19.17 0 0 1-3.28-14.5 17.99 17.99 0 0 1 8.13-12.05l26.08-16.63a19 19 0 0 1 5.3-2.33 20.72 20.72 0 0 1 22.24 8.25 19.17 19.17 0 0 1 3.28 14.5 18.4 18.4 0 0 1-.63 2.43l-.49 1.5-1.33-.98a33.62 33.62 0 0 0-10.2-5.1l-.98-.3.1-.96a5.86 5.86 0 0 0-1.06-3.88 6.24 6.24 0 0 0-6.7-2.48 5.74 5.74 0 0 0-1.6.7l-26.08 16.62a5.42 5.42 0 0 0-2.45 3.63 5.79 5.79 0 0 0 .99 4.38 6.24 6.24 0 0 0 6.7 2.48 5.77 5.77 0 0 0 1.6-.7l9.95-6.34a18.98 18.98 0 0 1 5.3-2.33 20.72 20.72 0 0 1 22.23 8.24 19.17 19.17 0 0 1 3.28 14.5 18 18 0 0 1-8.13 12.06l-26.08 16.62a19 19 0 0 1-5.3 2.33" style="fill:#fff"/>
</svg>
